<?xml version="1.0" encoding="utf-8" standalone="no"?>
<!DOCTYPE svg PUBLIC "-//W3C//DTD SVG 1.1//EN"
  "http://www.w3.org/Graphics/SVG/1.1/DTD/svg11.dtd">
<!-- Created with matplotlib (https://matplotlib.org/) -->
<svg height="345.6pt" version="1.1" viewBox="0 0 460.8 345.6" width="460.8pt" xmlns="http://www.w3.org/2000/svg" xmlns:xlink="http://www.w3.org/1999/xlink">
 <defs>
  <style type="text/css">
*{stroke-linecap:butt;stroke-linejoin:round;}
  </style>
 </defs>
 <g id="figure_1">
  <g id="patch_1">
   <path d="M 0 345.6 
L 460.8 345.6 
L 460.8 0 
L 0 0 
z
" style="fill:#ffffff;"/>
  </g>
  <g id="axes_1">
   <g id="patch_2">
    <path d="M 57.6 307.584 
L 414.72 307.584 
L 414.72 41.472 
L 57.6 41.472 
z
" style="fill:#ffffff;"/>
   </g>
   <g id="matplotlib.axis_1">
    <g id="xtick_1">
     <g id="line2d_1">
      <path clip-path="url(#p3e6cdc5dfd)" d="M 73.600665 307.584 
L 73.600665 41.472 
" style="fill:none;stroke:#b0b0b0;stroke-linecap:square;stroke-width:0.8;"/>
     </g>
     <g id="line2d_2">
      <defs>
       <path d="M 0 0 
L 0 3.5 
" id="m9eb5014947" style="stroke:#000000;stroke-width:0.8;"/>
      </defs>
      <g>
       <use style="stroke:#000000;stroke-width:0.8;" x="73.600665" xlink:href="#m9eb5014947" y="307.584"/>
      </g>
     </g>
     <g id="text_1">
      <!-- 0 -->
      <defs>
       <path d="M 31.78125 66.40625 
Q 24.171875 66.40625 20.328125 58.90625 
Q 16.5 51.421875 16.5 36.375 
Q 16.5 21.390625 20.328125 13.890625 
Q 24.171875 6.390625 31.78125 6.390625 
Q 39.453125 6.390625 43.28125 13.890625 
Q 47.125 21.390625 47.125 36.375 
Q 47.125 51.421875 43.28125 58.90625 
Q 39.453125 66.40625 31.78125 66.40625 
z
M 31.78125 74.21875 
Q 44.046875 74.21875 50.515625 64.515625 
Q 56.984375 54.828125 56.984375 36.375 
Q 56.984375 17.96875 50.515625 8.265625 
Q 44.046875 -1.421875 31.78125 -1.421875 
Q 19.53125 -1.421875 13.0625 8.265625 
Q 6.59375 17.96875 6.59375 36.375 
Q 6.59375 54.828125 13.0625 64.515625 
Q 19.53125 74.21875 31.78125 74.21875 
z
" id="DejaVuSans-48"/>
      </defs>
      <g transform="translate(70.419415 322.182437)scale(0.1 -0.1)">
       <use xlink:href="#DejaVuSans-48"/>
      </g>
     </g>
    </g>
    <g id="xtick_2">
     <g id="line2d_3">
      <path clip-path="url(#p3e6cdc5dfd)" d="M 120.013038 307.584 
L 120.013038 41.472 
" style="fill:none;stroke:#b0b0b0;stroke-linecap:square;stroke-width:0.8;"/>
     </g>
     <g id="line2d_4">
      <g>
       <use style="stroke:#000000;stroke-width:0.8;" x="120.013038" xlink:href="#m9eb5014947" y="307.584"/>
      </g>
     </g>
     <g id="text_2">
      <!-- 10 -->
      <defs>
       <path d="M 12.40625 8.296875 
L 28.515625 8.296875 
L 28.515625 63.921875 
L 10.984375 60.40625 
L 10.984375 69.390625 
L 28.421875 72.90625 
L 38.28125 72.90625 
L 38.28125 8.296875 
L 54.390625 8.296875 
L 54.390625 0 
L 12.40625 0 
z
" id="DejaVuSans-49"/>
      </defs>
      <g transform="translate(113.650538 322.182437)scale(0.1 -0.1)">
       <use xlink:href="#DejaVuSans-49"/>
       <use x="63.623047" xlink:href="#DejaVuSans-48"/>
      </g>
     </g>
    </g>
    <g id="xtick_3">
     <g id="line2d_5">
      <path clip-path="url(#p3e6cdc5dfd)" d="M 166.42541 307.584 
L 166.42541 41.472 
" style="fill:none;stroke:#b0b0b0;stroke-linecap:square;stroke-width:0.8;"/>
     </g>
     <g id="line2d_6">
      <g>
       <use style="stroke:#000000;stroke-width:0.8;" x="166.42541" xlink:href="#m9eb5014947" y="307.584"/>
      </g>
     </g>
     <g id="text_3">
      <!-- 20 -->
      <defs>
       <path d="M 19.1875 8.296875 
L 53.609375 8.296875 
L 53.609375 0 
L 7.328125 0 
L 7.328125 8.296875 
Q 12.9375 14.109375 22.625 23.890625 
Q 32.328125 33.6875 34.8125 36.53125 
Q 39.546875 41.84375 41.421875 45.53125 
Q 43.3125 49.21875 43.3125 52.78125 
Q 43.3125 58.59375 39.234375 62.25 
Q 35.15625 65.921875 28.609375 65.921875 
Q 23.96875 65.921875 18.8125 64.3125 
Q 13.671875 62.703125 7.8125 59.421875 
L 7.8125 69.390625 
Q 13.765625 71.78125 18.9375 73 
Q 24.125 74.21875 28.421875 74.21875 
Q 39.75 74.21875 46.484375 68.546875 
Q 53.21875 62.890625 53.21875 53.421875 
Q 53.21875 48.921875 51.53125 44.890625 
Q 49.859375 40.875 45.40625 35.40625 
Q 44.1875 33.984375 37.640625 27.21875 
Q 31.109375 20.453125 19.1875 8.296875 
z
" id="DejaVuSans-50"/>
      </defs>
      <g transform="translate(160.06291 322.182437)scale(0.1 -0.1)">
       <use xlink:href="#DejaVuSans-50"/>
       <use x="63.623047" xlink:href="#DejaVuSans-48"/>
      </g>
     </g>
    </g>
    <g id="xtick_4">
     <g id="line2d_7">
      <path clip-path="url(#p3e6cdc5dfd)" d="M 212.837783 307.584 
L 212.837783 41.472 
" style="fill:none;stroke:#b0b0b0;stroke-linecap:square;stroke-width:0.8;"/>
     </g>
     <g id="line2d_8">
      <g>
       <use style="stroke:#000000;stroke-width:0.8;" x="212.837783" xlink:href="#m9eb5014947" y="307.584"/>
      </g>
     </g>
     <g id="text_4">
      <!-- 30 -->
      <defs>
       <path d="M 40.578125 39.3125 
Q 47.65625 37.796875 51.625 33 
Q 55.609375 28.21875 55.609375 21.1875 
Q 55.609375 10.40625 48.1875 4.484375 
Q 40.765625 -1.421875 27.09375 -1.421875 
Q 22.515625 -1.421875 17.65625 -0.515625 
Q 12.796875 0.390625 7.625 2.203125 
L 7.625 11.71875 
Q 11.71875 9.328125 16.59375 8.109375 
Q 21.484375 6.890625 26.8125 6.890625 
Q 36.078125 6.890625 40.9375 10.546875 
Q 45.796875 14.203125 45.796875 21.1875 
Q 45.796875 27.640625 41.28125 31.265625 
Q 36.765625 34.90625 28.71875 34.90625 
L 20.21875 34.90625 
L 20.21875 43.015625 
L 29.109375 43.015625 
Q 36.375 43.015625 40.234375 45.921875 
Q 44.09375 48.828125 44.09375 54.296875 
Q 44.09375 59.90625 40.109375 62.90625 
Q 36.140625 65.921875 28.71875 65.921875 
Q 24.65625 65.921875 20.015625 65.03125 
Q 15.375 64.15625 9.8125 62.3125 
L 9.8125 71.09375 
Q 15.4375 72.65625 20.34375 73.4375 
Q 25.25 74.21875 29.59375 74.21875 
Q 40.828125 74.21875 47.359375 69.109375 
Q 53.90625 64.015625 53.90625 55.328125 
Q 53.90625 49.265625 50.4375 45.09375 
Q 46.96875 40.921875 40.578125 39.3125 
z
" id="DejaVuSans-51"/>
      </defs>
      <g transform="translate(206.475283 322.182437)scale(0.1 -0.1)">
       <use xlink:href="#DejaVuSans-51"/>
       <use x="63.623047" xlink:href="#DejaVuSans-48"/>
      </g>
     </g>
    </g>
    <g id="xtick_5">
     <g id="line2d_9">
      <path clip-path="url(#p3e6cdc5dfd)" d="M 259.250155 307.584 
L 259.250155 41.472 
" style="fill:none;stroke:#b0b0b0;stroke-linecap:square;stroke-width:0.8;"/>
     </g>
     <g id="line2d_10">
      <g>
       <use style="stroke:#000000;stroke-width:0.8;" x="259.250155" xlink:href="#m9eb5014947" y="307.584"/>
      </g>
     </g>
     <g id="text_5">
      <!-- 40 -->
      <defs>
       <path d="M 37.796875 64.3125 
L 12.890625 25.390625 
L 37.796875 25.390625 
z
M 35.203125 72.90625 
L 47.609375 72.90625 
L 47.609375 25.390625 
L 58.015625 25.390625 
L 58.015625 17.1875 
L 47.609375 17.1875 
L 47.609375 0 
L 37.796875 0 
L 37.796875 17.1875 
L 4.890625 17.1875 
L 4.890625 26.703125 
z
" id="DejaVuSans-52"/>
      </defs>
      <g transform="translate(252.887655 322.182437)scale(0.1 -0.1)">
       <use xlink:href="#DejaVuSans-52"/>
       <use x="63.623047" xlink:href="#DejaVuSans-48"/>
      </g>
     </g>
    </g>
    <g id="xtick_6">
     <g id="line2d_11">
      <path clip-path="url(#p3e6cdc5dfd)" d="M 305.662528 307.584 
L 305.662528 41.472 
" style="fill:none;stroke:#b0b0b0;stroke-linecap:square;stroke-width:0.8;"/>
     </g>
     <g id="line2d_12">
      <g>
       <use style="stroke:#000000;stroke-width:0.8;" x="305.662528" xlink:href="#m9eb5014947" y="307.584"/>
      </g>
     </g>
     <g id="text_6">
      <!-- 50 -->
      <defs>
       <path d="M 10.796875 72.90625 
L 49.515625 72.90625 
L 49.515625 64.59375 
L 19.828125 64.59375 
L 19.828125 46.734375 
Q 21.96875 47.46875 24.109375 47.828125 
Q 26.265625 48.1875 28.421875 48.1875 
Q 40.625 48.1875 47.75 41.5 
Q 54.890625 34.8125 54.890625 23.390625 
Q 54.890625 11.625 47.5625 5.09375 
Q 40.234375 -1.421875 26.90625 -1.421875 
Q 22.3125 -1.421875 17.546875 -0.640625 
Q 12.796875 0.140625 7.71875 1.703125 
L 7.71875 11.625 
Q 12.109375 9.234375 16.796875 8.0625 
Q 21.484375 6.890625 26.703125 6.890625 
Q 35.15625 6.890625 40.078125 11.328125 
Q 45.015625 15.765625 45.015625 23.390625 
Q 45.015625 31 40.078125 35.4375 
Q 35.15625 39.890625 26.703125 39.890625 
Q 22.75 39.890625 18.8125 39.015625 
Q 14.890625 38.140625 10.796875 36.28125 
z
" id="DejaVuSans-53"/>
      </defs>
      <g transform="translate(299.300028 322.182437)scale(0.1 -0.1)">
       <use xlink:href="#DejaVuSans-53"/>
       <use x="63.623047" xlink:href="#DejaVuSans-48"/>
      </g>
     </g>
    </g>
    <g id="xtick_7">
     <g id="line2d_13">
      <path clip-path="url(#p3e6cdc5dfd)" d="M 352.0749 307.584 
L 352.0749 41.472 
" style="fill:none;stroke:#b0b0b0;stroke-linecap:square;stroke-width:0.8;"/>
     </g>
     <g id="line2d_14">
      <g>
       <use style="stroke:#000000;stroke-width:0.8;" x="352.0749" xlink:href="#m9eb5014947" y="307.584"/>
      </g>
     </g>
     <g id="text_7">
      <!-- 60 -->
      <defs>
       <path d="M 33.015625 40.375 
Q 26.375 40.375 22.484375 35.828125 
Q 18.609375 31.296875 18.609375 23.390625 
Q 18.609375 15.53125 22.484375 10.953125 
Q 26.375 6.390625 33.015625 6.390625 
Q 39.65625 6.390625 43.53125 10.953125 
Q 47.40625 15.53125 47.40625 23.390625 
Q 47.40625 31.296875 43.53125 35.828125 
Q 39.65625 40.375 33.015625 40.375 
z
M 52.59375 71.296875 
L 52.59375 62.3125 
Q 48.875 64.0625 45.09375 64.984375 
Q 41.3125 65.921875 37.59375 65.921875 
Q 27.828125 65.921875 22.671875 59.328125 
Q 17.53125 52.734375 16.796875 39.40625 
Q 19.671875 43.65625 24.015625 45.921875 
Q 28.375 48.1875 33.59375 48.1875 
Q 44.578125 48.1875 50.953125 41.515625 
Q 57.328125 34.859375 57.328125 23.390625 
Q 57.328125 12.15625 50.6875 5.359375 
Q 44.046875 -1.421875 33.015625 -1.421875 
Q 20.359375 -1.421875 13.671875 8.265625 
Q 6.984375 17.96875 6.984375 36.375 
Q 6.984375 53.65625 15.1875 63.9375 
Q 23.390625 74.21875 37.203125 74.21875 
Q 40.921875 74.21875 44.703125 73.484375 
Q 48.484375 72.75 52.59375 71.296875 
z
" id="DejaVuSans-54"/>
      </defs>
      <g transform="translate(345.7124 322.182437)scale(0.1 -0.1)">
       <use xlink:href="#DejaVuSans-54"/>
       <use x="63.623047" xlink:href="#DejaVuSans-48"/>
      </g>
     </g>
    </g>
    <g id="xtick_8">
     <g id="line2d_15">
      <path clip-path="url(#p3e6cdc5dfd)" d="M 398.487273 307.584 
L 398.487273 41.472 
" style="fill:none;stroke:#b0b0b0;stroke-linecap:square;stroke-width:0.8;"/>
     </g>
     <g id="line2d_16">
      <g>
       <use style="stroke:#000000;stroke-width:0.8;" x="398.487273" xlink:href="#m9eb5014947" y="307.584"/>
      </g>
     </g>
     <g id="text_8">
      <!-- 70 -->
      <defs>
       <path d="M 8.203125 72.90625 
L 55.078125 72.90625 
L 55.078125 68.703125 
L 28.609375 0 
L 18.3125 0 
L 43.21875 64.59375 
L 8.203125 64.59375 
z
" id="DejaVuSans-55"/>
      </defs>
      <g transform="translate(392.124773 322.182437)scale(0.1 -0.1)">
       <use xlink:href="#DejaVuSans-55"/>
       <use x="63.623047" xlink:href="#DejaVuSans-48"/>
      </g>
     </g>
    </g>
    <g id="text_9">
     <!-- t -->
     <defs>
      <path d="M 18.3125 70.21875 
L 18.3125 54.6875 
L 36.8125 54.6875 
L 36.8125 47.703125 
L 18.3125 47.703125 
L 18.3125 18.015625 
Q 18.3125 11.328125 20.140625 9.421875 
Q 21.96875 7.515625 27.59375 7.515625 
L 36.8125 7.515625 
L 36.8125 0 
L 27.59375 0 
Q 17.1875 0 13.234375 3.875 
Q 9.28125 7.765625 9.28125 18.015625 
L 9.28125 47.703125 
L 2.6875 47.703125 
L 2.6875 54.6875 
L 9.28125 54.6875 
L 9.28125 70.21875 
z
" id="DejaVuSans-116"/>
     </defs>
     <g transform="translate(234.199844 335.860562)scale(0.1 -0.1)">
      <use xlink:href="#DejaVuSans-116"/>
     </g>
    </g>
   </g>
   <g id="matplotlib.axis_2">
    <g id="ytick_1">
     <g id="line2d_17">
      <path clip-path="url(#p3e6cdc5dfd)" d="M 57.6 287.964722 
L 414.72 287.964722 
" style="fill:none;stroke:#b0b0b0;stroke-linecap:square;stroke-width:0.8;"/>
     </g>
     <g id="line2d_18">
      <defs>
       <path d="M 0 0 
L -3.5 0 
" id="m43eaa979e0" style="stroke:#000000;stroke-width:0.8;"/>
      </defs>
      <g>
       <use style="stroke:#000000;stroke-width:0.8;" x="57.6" xlink:href="#m43eaa979e0" y="287.964722"/>
      </g>
     </g>
     <g id="text_10">
      <!-- 0.00 -->
      <defs>
       <path d="M 10.6875 12.40625 
L 21 12.40625 
L 21 0 
L 10.6875 0 
z
" id="DejaVuSans-46"/>
      </defs>
      <g transform="translate(28.334375 291.763941)scale(0.1 -0.1)">
       <use xlink:href="#DejaVuSans-48"/>
       <use x="63.623047" xlink:href="#DejaVuSans-46"/>
       <use x="95.410156" xlink:href="#DejaVuSans-48"/>
       <use x="159.033203" xlink:href="#DejaVuSans-48"/>
      </g>
     </g>
    </g>
    <g id="ytick_2">
     <g id="line2d_19">
      <path clip-path="url(#p3e6cdc5dfd)" d="M 57.6 241.081523 
L 414.72 241.081523 
" style="fill:none;stroke:#b0b0b0;stroke-linecap:square;stroke-width:0.8;"/>
     </g>
     <g id="line2d_20">
      <g>
       <use style="stroke:#000000;stroke-width:0.8;" x="57.6" xlink:href="#m43eaa979e0" y="241.081523"/>
      </g>
     </g>
     <g id="text_11">
      <!-- 0.05 -->
      <g transform="translate(28.334375 244.880741)scale(0.1 -0.1)">
       <use xlink:href="#DejaVuSans-48"/>
       <use x="63.623047" xlink:href="#DejaVuSans-46"/>
       <use x="95.410156" xlink:href="#DejaVuSans-48"/>
       <use x="159.033203" xlink:href="#DejaVuSans-53"/>
      </g>
     </g>
    </g>
    <g id="ytick_3">
     <g id="line2d_21">
      <path clip-path="url(#p3e6cdc5dfd)" d="M 57.6 194.198323 
L 414.72 194.198323 
" style="fill:none;stroke:#b0b0b0;stroke-linecap:square;stroke-width:0.8;"/>
     </g>
     <g id="line2d_22">
      <g>
       <use style="stroke:#000000;stroke-width:0.8;" x="57.6" xlink:href="#m43eaa979e0" y="194.198323"/>
      </g>
     </g>
     <g id="text_12">
      <!-- 0.10 -->
      <g transform="translate(28.334375 197.997542)scale(0.1 -0.1)">
       <use xlink:href="#DejaVuSans-48"/>
       <use x="63.623047" xlink:href="#DejaVuSans-46"/>
       <use x="95.410156" xlink:href="#DejaVuSans-49"/>
       <use x="159.033203" xlink:href="#DejaVuSans-48"/>
      </g>
     </g>
    </g>
    <g id="ytick_4">
     <g id="line2d_23">
      <path clip-path="url(#p3e6cdc5dfd)" d="M 57.6 147.315124 
L 414.72 147.315124 
" style="fill:none;stroke:#b0b0b0;stroke-linecap:square;stroke-width:0.8;"/>
     </g>
     <g id="line2d_24">
      <g>
       <use style="stroke:#000000;stroke-width:0.8;" x="57.6" xlink:href="#m43eaa979e0" y="147.315124"/>
      </g>
     </g>
     <g id="text_13">
      <!-- 0.15 -->
      <g transform="translate(28.334375 151.114343)scale(0.1 -0.1)">
       <use xlink:href="#DejaVuSans-48"/>
       <use x="63.623047" xlink:href="#DejaVuSans-46"/>
       <use x="95.410156" xlink:href="#DejaVuSans-49"/>
       <use x="159.033203" xlink:href="#DejaVuSans-53"/>
      </g>
     </g>
    </g>
    <g id="ytick_5">
     <g id="line2d_25">
      <path clip-path="url(#p3e6cdc5dfd)" d="M 57.6 100.431925 
L 414.72 100.431925 
" style="fill:none;stroke:#b0b0b0;stroke-linecap:square;stroke-width:0.8;"/>
     </g>
     <g id="line2d_26">
      <g>
       <use style="stroke:#000000;stroke-width:0.8;" x="57.6" xlink:href="#m43eaa979e0" y="100.431925"/>
      </g>
     </g>
     <g id="text_14">
      <!-- 0.20 -->
      <g transform="translate(28.334375 104.231144)scale(0.1 -0.1)">
       <use xlink:href="#DejaVuSans-48"/>
       <use x="63.623047" xlink:href="#DejaVuSans-46"/>
       <use x="95.410156" xlink:href="#DejaVuSans-50"/>
       <use x="159.033203" xlink:href="#DejaVuSans-48"/>
      </g>
     </g>
    </g>
    <g id="ytick_6">
     <g id="line2d_27">
      <path clip-path="url(#p3e6cdc5dfd)" d="M 57.6 53.548726 
L 414.72 53.548726 
" style="fill:none;stroke:#b0b0b0;stroke-linecap:square;stroke-width:0.8;"/>
     </g>
     <g id="line2d_28">
      <g>
       <use style="stroke:#000000;stroke-width:0.8;" x="57.6" xlink:href="#m43eaa979e0" y="53.548726"/>
      </g>
     </g>
     <g id="text_15">
      <!-- 0.25 -->
      <g transform="translate(28.334375 57.347945)scale(0.1 -0.1)">
       <use xlink:href="#DejaVuSans-48"/>
       <use x="63.623047" xlink:href="#DejaVuSans-46"/>
       <use x="95.410156" xlink:href="#DejaVuSans-50"/>
       <use x="159.033203" xlink:href="#DejaVuSans-53"/>
      </g>
     </g>
    </g>
    <g id="text_16">
     <!-- Y -->
     <defs>
      <path d="M -0.203125 72.90625 
L 10.40625 72.90625 
L 30.609375 42.921875 
L 50.6875 72.90625 
L 61.28125 72.90625 
L 35.5 34.71875 
L 35.5 0 
L 25.59375 0 
L 25.59375 34.71875 
z
" id="DejaVuSans-89"/>
     </defs>
     <g transform="translate(22.254688 177.581906)rotate(-90)scale(0.1 -0.1)">
      <use xlink:href="#DejaVuSans-89"/>
     </g>
    </g>
   </g>
   <g id="line2d_29">
    <path clip-path="url(#p3e6cdc5dfd)" d="M 74.621738 287.976406 
L 75.828459 288.691659 
L 76.153346 288.748737 
L 77.128006 289.538224 
L 78.19549 290.550633 
L 78.520377 290.970129 
L 78.845263 290.915178 
L 79.030913 291.013133 
L 79.727099 291.783042 
L 80.376872 291.687849 
L 80.887408 291.730191 
L 81.165882 291.348477 
L 81.630006 290.750312 
L 82.09413 290.354787 
L 82.465429 289.631625 
L 83.022377 288.496745 
L 83.347264 287.979748 
L 83.67215 286.770214 
L 84.182686 285.064008 
L 84.553985 283.619872 
L 85.760707 277.300056 
L 87.431552 265.841332 
L 90.819656 235.717813 
L 96.249903 176.060815 
L 97.270975 164.637287 
L 100.519841 130.580013 
L 101.123202 126.765907 
L 101.540914 125.25017 
L 101.726563 125.123725 
L 101.8658 125.419797 
L 102.097862 126.809246 
L 103.02611 135.202251 
L 103.443821 142.051789 
L 104.975429 170.130132 
L 106.135739 182.698876 
L 106.460625 184.534539 
L 107.388873 186.955901 
L 107.620934 186.901475 
L 107.899409 186.842419 
L 108.270708 186.818853 
L 108.50277 186.430614 
L 108.827656 185.344007 
L 110.312852 178.594738 
L 111.101862 172.115143 
L 111.612398 166.427612 
L 112.215759 157.109718 
L 113.840192 124.972832 
L 114.397141 112.83468 
L 114.861265 102.326063 
L 115.603862 85.382899 
L 116.856997 62.856741 
L 117.274708 58.390769 
L 117.878069 54.829675 
L 117.970893 54.817351 
L 118.110131 55.483626 
L 118.806316 60.327347 
L 118.991966 61.372719 
L 119.27044 64.770209 
L 123.215492 124.372157 
L 124.329389 139.646135 
L 124.607863 141.420892 
L 124.932749 143.143291 
L 125.768172 149.068551 
L 126.278708 150.703018 
L 126.742832 151.43116 
L 127.392605 152.279538 
L 127.624667 152.095523 
L 128.042378 151.338915 
L 128.413677 150.200542 
L 129.202688 146.781671 
L 129.759636 142.944283 
L 130.362997 137.949385 
L 135.282708 88.247544 
L 137.742564 68.729355 
L 138.43875 65.579591 
L 138.670812 65.233178 
L 139.088523 64.918656 
L 139.552647 64.291758 
L 139.784709 64.471761 
L 140.248832 64.877927 
L 140.527307 65.160485 
L 141.130667 65.923054 
L 141.409142 66.149684 
L 141.687616 66.888095 
L 143.172812 72.332286 
L 143.91541 76.258456 
L 144.565183 81.483424 
L 145.771905 92.68964 
L 146.514503 99.800787 
L 147.025039 104.782324 
L 147.860461 113.481484 
L 148.788709 121.396169 
L 150.320317 133.368466 
L 151.480626 139.189218 
L 152.362461 140.425244 
L 152.91941 140.710674 
L 153.151472 140.595938 
L 153.429946 140.047961 
L 154.265369 137.526258 
L 154.590255 136.184927 
L 154.961554 133.435174 
L 156.307513 120.319312 
L 157.189348 108.695235 
L 159.092256 80.030493 
L 160.484627 64.085821 
L 161.227225 57.898559 
L 161.737761 55.537908 
L 162.248297 54.076495 
L 162.619596 53.579275 
L 162.805245 53.634071 
L 162.990895 54.001233 
L 164.104792 57.562436 
L 164.66174 61.78926 
L 165.172276 64.947149 
L 165.682812 67.962566 
L 166.146936 72.431898 
L 166.657472 76.505797 
L 167.121596 80.023131 
L 167.539307 85.439695 
L 167.910606 89.247407 
L 168.37473 91.917341 
L 169.535039 103.089809 
L 169.906338 105.395335 
L 171.994895 121.863309 
L 172.459019 124.248182 
L 172.87673 126.488271 
L 173.526503 130.00819 
L 174.501163 133.548811 
L 174.918875 134.421676 
L 175.197349 134.626178 
L 176.032771 134.616398 
L 176.264833 134.3937 
L 176.682545 133.587674 
L 177.37873 131.807682 
L 177.796442 130.028171 
L 179.188813 122.807395 
L 179.606524 119.130229 
L 180.163473 111.587499 
L 180.906071 102.059968 
L 181.695081 92.500042 
L 183.458751 68.634256 
L 184.711885 58.234337 
L 185.640133 54.437345 
L 185.918607 54.110453 
L 186.197081 54.127586 
L 186.707617 54.329404 
L 186.893267 54.771004 
L 188.099988 59.398149 
L 188.610524 63.144475 
L 189.863658 73.750363 
L 190.791906 83.238733 
L 191.348854 88.624584 
L 191.720153 91.699813 
L 192.416339 99.741997 
L 192.741226 101.779624 
L 194.644133 120.129836 
L 195.108257 122.939366 
L 196.268566 128.514297 
L 196.825514 130.934766 
L 197.243226 132.483027 
L 198.403535 134.790977 
L 199.238958 135.844784 
L 199.47102 135.748972 
L 199.749494 135.3179 
L 200.027968 134.435327 
L 201.420339 128.044696 
L 202.348587 120.988498 
L 202.859123 115.891372 
L 204.854855 92.310807 
L 206.107989 75.779847 
L 207.639597 60.555647 
L 208.335783 56.143908 
L 208.753494 54.568927 
L 208.985556 54.376347 
L 209.26403 54.5373 
L 209.960216 55.171779 
L 210.377927 55.990381 
L 210.749226 57.278487 
L 211.398999 60.845022 
L 211.863123 64.157979 
L 212.605721 69.776435 
L 213.626793 78.359477 
L 215.065577 92.6661 
L 215.900999 101.06451 
L 216.829247 109.503596 
L 218.26803 121.789026 
L 218.824979 125.297864 
L 219.521164 129.407744 
L 220.031701 131.711511 
L 221.052773 134.791037 
L 221.377659 135.297444 
L 221.609721 135.35267 
L 221.98102 135.366833 
L 222.491556 135.688238 
L 222.723618 135.339626 
L 223.698278 133.212108 
L 224.533701 129.231026 
L 224.997824 125.597005 
L 226.297371 112.495117 
L 227.132794 102.561179 
L 227.736154 95.732249 
L 228.989288 79.2414 
L 230.520897 62.546881 
L 231.124258 58.451426 
L 231.727618 55.603029 
L 232.052505 55.041119 
L 232.748691 54.520221 
L 232.980752 54.612725 
L 233.212814 55.007255 
L 233.909 57.130019 
L 234.280299 58.499975 
L 234.744423 61.286829 
L 235.951144 70.465354 
L 236.693742 76.443237 
L 237.250691 82.100266 
L 238.318175 93.448904 
L 239.246423 102.462902 
L 239.849784 107.635025 
L 240.638794 114.005684 
L 241.799103 123.014435 
L 242.634526 128.014131 
L 243.980485 133.674412 
L 244.583846 134.964177 
L 244.908732 135.355515 
L 245.233619 135.315571 
L 245.419268 135.381542 
L 245.883392 135.70196 
L 246.069042 135.373401 
L 247.368588 131.745886 
L 247.786299 129.134727 
L 248.807371 120.842056 
L 249.828444 110.679343 
L 250.292567 105.051485 
L 251.220815 92.94605 
L 253.680671 63.050466 
L 254.191207 59.551382 
L 254.933805 55.067648 
L 255.258691 54.321095 
L 255.537166 54.1485 
L 255.81564 54.263248 
L 256.372588 54.842312 
L 256.651062 55.445729 
L 257.068774 57.101978 
L 258.321908 63.408007 
L 259.296568 71.268552 
L 264.401929 118.803743 
L 265.190939 124.057907 
L 266.722547 132.739392 
L 267.233083 133.983754 
L 267.929269 135.40455 
L 268.486217 135.491145 
L 268.811104 135.717251 
L 268.996754 135.53812 
L 269.50729 134.480355 
L 270.017826 133.101632 
L 270.760424 130.376756 
L 271.827908 123.310624 
L 272.338444 118.598796 
L 274.00929 99.495265 
L 274.427001 92.85898 
L 274.937537 85.524491 
L 275.77296 75.724041 
L 276.329908 69.075082 
L 276.979682 63.148726 
L 277.53663 58.557292 
L 278.139991 55.343901 
L 278.51129 54.222193 
L 278.743352 54.045709 
L 279.114651 54.187309 
L 279.439537 54.395542 
L 279.671599 54.865151 
L 280.182135 56.650378 
L 280.971146 60.054674 
L 281.528094 63.522969 
L 283.106115 76.340297 
L 284.127187 86.688347 
L 284.684135 92.162516 
L 285.101847 96.268471 
L 285.844445 103.900121 
L 288.350713 124.301635 
L 289.371785 130.055595 
L 290.392857 133.751007 
L 291.22828 134.949955 
L 291.599579 135.318381 
L 291.831641 135.320397 
L 292.156527 135.04279 
L 292.713476 134.2017 
L 293.270424 132.876559 
L 293.873785 130.868825 
L 294.198672 129.133299 
L 295.358981 120.135492 
L 296.983414 101.98553 
L 299.25762 72.240272 
L 300.835641 58.20331 
L 301.253352 56.032191 
L 301.810301 54.455251 
L 302.135187 54.007234 
L 302.320837 54.010838 
L 302.552899 54.311671 
L 303.434734 56.395841 
L 303.759621 57.645787 
L 304.130919 60.201757 
L 304.409394 61.663608 
L 304.409394 61.663608 
" style="fill:none;stroke:#1f77b4;stroke-dasharray:5.55,2.4;stroke-dashoffset:0;stroke-width:1.5;"/>
   </g>
   <g id="line2d_30">
    <path clip-path="url(#p3e6cdc5dfd)" d="M 75.317923 287.933906 
L 75.689222 287.421985 
L 75.874872 287.436646 
L 76.153346 287.757362 
L 76.756707 288.519835 
L 77.499305 289.064347 
L 77.777779 290.314502 
L 78.149078 291.763553 
L 78.427552 292.054154 
L 78.938088 292.416039 
L 80.748171 294.610722 
L 81.490769 295.162801 
L 81.954892 295.478137 
L 82.69749 295.481884 
L 83.022377 295.393679 
L 83.440088 294.990259 
L 83.904212 294.217371 
L 85.018109 291.501318 
L 86.085594 287.788082 
L 87.292315 281.391059 
L 88.684686 272.871692 
L 90.262707 259.822667 
L 93.279511 228.756516 
L 93.929285 220.968246 
L 95.089594 206.918519 
L 96.481965 188.683352 
L 99.12747 154.994528 
L 100.380604 141.268912 
L 100.751903 139.886697 
L 100.89114 139.812713 
L 101.030378 140.122142 
L 101.308852 141.685467 
L 102.005037 147.545577 
L 102.608398 154.20297 
L 105.068254 185.41468 
L 106.414213 196.260988 
L 107.017574 199.49171 
L 107.806584 201.965649 
L 108.085058 202.255588 
L 108.31712 202.211888 
L 108.549182 201.932028 
L 108.827656 201.202717 
L 109.523842 198.342578 
L 109.895141 196.136475 
L 110.452089 191.166057 
L 111.84446 175.977539 
L 112.633471 164.382732 
L 113.422481 149.634472 
L 116.764172 81.535011 
L 117.181883 78.942654 
L 117.553182 77.784747 
L 117.738832 77.703088 
L 117.924481 77.976497 
L 118.202955 79.021484 
L 119.316852 84.94486 
L 120.523574 94.709585 
L 121.312584 103.211482 
L 121.544646 105.006774 
L 122.937017 110.694162 
L 123.493966 115.494861 
L 124.793512 123.103791 
L 125.675347 127.747734 
L 126.232296 130.510462 
L 126.882069 133.973918 
L 127.810316 138.513233 
L 128.367265 140.840749 
L 128.738564 142.47962 
L 128.877801 142.518664 
L 129.109863 142.478056 
L 129.2491 142.964457 
L 129.573987 145.90284 
L 129.852461 147.388904 
L 129.991698 147.331452 
L 130.316585 146.981479 
L 130.595059 147.291425 
L 130.780708 147.376604 
L 131.01277 147.178832 
L 131.430482 146.856209 
L 131.662543 146.633948 
L 131.941018 145.930237 
L 132.451554 143.828672 
L 133.054915 140.436613 
L 133.7511 134.666371 
L 134.400873 128.512293 
L 135.793245 111.785848 
L 138.531575 77.52174 
L 139.181348 71.59245 
L 139.831121 68.221086 
L 140.20242 67.068727 
L 140.388069 66.912457 
L 140.712956 67.11048 
L 141.223492 67.759975 
L 141.548379 68.402608 
L 142.058915 70.145584 
L 142.847925 74.180449 
L 144.240296 82.997254 
L 145.818317 97.716738 
L 146.607327 100.527165 
L 147.396338 103.499957 
L 147.767637 107.06246 
L 148.603059 117.963155 
L 148.835121 121.187191 
L 149.438482 131.920111 
L 151.062915 142.03139 
L 151.387802 142.93973 
L 151.712688 143.737521 
L 152.872998 147.956547 
L 153.244297 148.597115 
L 153.476358 148.605884 
L 153.801245 148.317579 
L 154.126132 147.728487 
L 154.636668 146.14107 
L 155.147204 144.096931 
L 155.65774 140.807438 
L 156.6324 132.777739 
L 157.374998 124.802721 
L 161.459287 78.042997 
L 162.387534 71.573655 
L 163.130132 68.594289 
L 163.501431 67.489911 
L 163.779905 67.340108 
L 164.104792 67.159634 
L 164.568915 66.872748 
L 164.754565 67.061207 
L 164.986627 67.841737 
L 165.497163 69.768944 
L 166.796709 71.43101 
L 167.075184 73.519306 
L 168.003431 81.123983 
L 168.37473 84.159768 
L 169.070916 90.660611 
L 169.581452 94.362907 
L 170.1384 100.608113 
L 170.648936 105.2075 
L 171.252297 110.424881 
L 171.90207 119.794673 
L 172.87673 133.297146 
L 173.897802 139.413474 
L 174.779637 144.789789 
L 175.80071 148.962094 
L 176.40407 149.590316 
L 176.58972 149.617651 
L 176.821782 149.339084 
L 177.471555 147.938638 
L 177.889266 146.516768 
L 178.35339 143.994057 
L 179.235225 137.400045 
L 179.792174 132.453293 
L 181.138132 117.314198 
L 183.551576 88.522363 
L 184.247761 81.877907 
L 185.361658 73.629743 
L 186.011432 70.459886 
L 186.986091 67.847362 
L 187.867926 67.359351 
L 188.146401 67.798926 
L 188.842586 69.467076 
L 189.167473 71.182132 
L 189.399535 72.233319 
L 190.699081 76.284773 
L 191.441679 81.536538 
L 192.83405 94.298252 
L 193.623061 102.439107 
L 194.551308 112.376089 
L 195.201081 120.936389 
L 196.222153 134.284728 
L 196.825514 137.948798 
L 198.264298 146.19093 
L 198.821246 148.381521 
L 199.331782 149.488959 
L 199.563844 149.633643 
L 199.795906 149.484275 
L 200.399267 148.655807 
L 200.770566 147.696398 
L 201.281102 145.60157 
L 201.884463 142.148057 
L 202.766298 134.867779 
L 203.230422 129.853891 
L 206.896999 87.211208 
L 208.150133 76.080343 
L 208.614257 73.611818 
L 209.960216 68.428965 
L 210.888463 67.34767 
L 211.491824 67.953066 
L 212.420071 69.605182 
L 213.209082 71.322022 
L 213.998092 76.105319 
L 214.879927 83.116691 
L 215.5297 89.300821 
L 216.225886 95.448904 
L 217.525432 109.161832 
L 218.082381 114.444726 
L 219.660402 135.948255 
L 220.403 140.394122 
L 221.052773 144.387076 
L 222.120257 148.911506 
L 222.491556 149.301196 
L 223.002092 149.640255 
L 223.234154 149.526326 
L 223.466216 149.129438 
L 223.883927 147.804155 
L 224.580113 144.929614 
L 225.183474 141.198426 
L 225.926072 135.061461 
L 226.761495 126.688346 
L 228.617989 104.681158 
L 230.010361 88.592642 
L 230.845783 80.690787 
L 232.006093 72.569891 
L 233.073577 68.679054 
L 233.491289 67.906909 
L 234.094649 67.295417 
L 234.280299 67.454607 
L 235.162134 68.951632 
L 235.487021 70.645883 
L 235.765495 71.786717 
L 237.065041 74.805498 
L 237.714814 79.682863 
L 238.225351 84.10367 
L 239.339248 95.101998 
L 240.035433 101.834669 
L 241.102918 113.197893 
L 242.309639 131.727704 
L 242.959413 135.886596 
L 243.88766 141.978381 
L 244.630258 146.301123 
L 245.187206 148.397332 
L 245.65133 149.399676 
L 245.976217 149.696207 
L 246.254691 149.685307 
L 246.533165 149.428535 
L 246.904464 148.708424 
L 247.322176 147.375097 
L 247.879124 144.75575 
L 248.38966 141.393802 
L 249.549969 130.914716 
L 252.10265 101.215418 
L 253.448609 86.171277 
L 254.887392 74.36288 
L 255.537166 71.016257 
L 256.094114 69.22495 
L 256.883124 67.500844 
L 257.115186 67.309103 
L 257.347248 67.449802 
L 258.321908 68.582595 
L 259.296568 71.40985 
L 260.085578 73.857002 
L 261.060238 80.846713 
L 261.988485 89.699124 
L 263.009557 98.836821 
L 264.03063 109.938314 
L 265.655063 133.373683 
L 266.58331 138.613492 
L 268.022094 146.982394 
L 269.043166 149.588669 
L 269.32164 149.618463 
L 269.646527 149.407068 
L 269.971413 148.893209 
L 270.342712 147.833539 
L 271.131723 144.578573 
L 271.503022 142.012623 
L 272.895393 129.873199 
L 274.751888 108.52783 
L 276.74762 85.31997 
L 277.443805 79.182036 
L 278.418465 72.874092 
L 279.3003 68.987898 
L 279.625187 68.326328 
L 280.228548 67.713477 
L 280.553434 67.296679 
L 280.739084 67.384726 
L 281.388857 68.215683 
L 281.667331 69.106032 
L 282.270692 71.327774 
L 283.431001 74.07245 
L 284.684135 83.948618 
L 285.287496 90.687757 
L 285.844445 95.640913 
L 286.54063 102.196118 
L 287.654527 114.392513 
L 289.093311 134.800912 
L 290.067971 140.110723 
L 291.181868 146.363462 
L 291.831641 148.737066 
L 292.249352 149.288238 
L 292.667063 149.632372 
L 292.852713 149.519878 
L 293.131187 149.021783 
L 293.595311 147.696584 
L 294.105847 145.427949 
L 294.802033 141.468774 
L 295.73028 133.680107 
L 296.797765 122.28842 
L 300.464342 80.858889 
L 301.39259 74.26785 
L 302.135187 70.479591 
L 302.738548 68.900281 
L 303.295497 67.89172 
L 303.852445 67.294209 
L 304.038095 67.418007 
L 304.409394 68.054009 
L 304.409394 68.054009 
" style="fill:none;stroke:#ff7f0e;stroke-dasharray:5.55,2.4;stroke-dashoffset:0;stroke-width:1.5;"/>
   </g>
   <g id="line2d_31">
    <path clip-path="url(#p3e6cdc5dfd)" d="M 73.832727 287.966011 
L 74.760975 288.06202 
L 75.689222 288.420952 
L 76.61747 289.095909 
L 77.777779 290.321396 
L 80.794583 293.827034 
L 81.490769 294.258003 
L 82.186954 294.378587 
L 82.651078 294.248134 
L 83.115202 293.924571 
L 83.579325 293.3897 
L 84.275511 292.159042 
L 84.971697 290.383039 
L 85.667882 288.041061 
L 86.59613 284.024242 
L 87.524377 278.990159 
L 88.684686 271.333873 
L 90.077058 260.438334 
L 91.933553 243.811849 
L 94.022109 222.845784 
L 98.431285 177.601062 
L 101.448089 150.010024 
L 102.376336 143.2669 
L 102.84046 140.871586 
L 103.304584 139.459616 
L 103.536646 139.203833 
L 103.768708 139.28714 
L 104.000769 139.732953 
L 104.464893 141.762278 
L 104.929017 145.260779 
L 105.625202 152.637519 
L 107.713759 177.111717 
L 108.409945 183.017939 
L 109.10613 187.212312 
L 109.570254 189.016784 
L 110.034378 190.014654 
L 110.26644 190.206438 
L 110.498502 190.189785 
L 110.730563 189.961313 
L 111.194687 188.852398 
L 111.658811 186.842897 
L 112.122935 183.898164 
L 112.81912 177.690919 
L 113.515306 169.362698 
L 114.443553 155.182273 
L 115.603862 133.098485 
L 116.996234 101.242105 
L 118.156543 75.398279 
L 118.852729 64.395169 
L 119.316852 59.974194 
L 119.548914 58.736124 
L 119.780976 58.175429 
L 120.013038 58.304407 
L 120.2451 59.121112 
L 120.709223 62.703063 
L 121.405409 71.894391 
L 123.261904 102.948544 
L 125.582523 141.25499 
L 126.51077 152.584855 
L 127.439017 161.314526 
L 128.135203 166.185166 
L 128.599327 168.411669 
L 129.063451 169.633567 
L 129.295512 169.83099 
L 129.527574 169.744142 
L 129.759636 169.374633 
L 130.22376 167.822881 
L 130.687884 165.284092 
L 131.384069 159.909252 
L 132.312317 150.259883 
L 133.240564 137.717241 
L 134.400873 118.214491 
L 135.793245 95.424677 
L 136.953554 80.226793 
L 137.649739 72.921011 
L 138.113863 69.561695 
L 138.577987 67.592004 
L 139.042111 66.664085 
L 139.506234 66.310221 
L 139.738296 66.28369 
L 139.970358 66.377262 
L 140.20242 66.625928 
L 140.666544 67.696929 
L 141.362729 70.508341 
L 142.290977 74.265677 
L 143.219224 77.761227 
L 143.91541 81.650379 
L 146.46809 98.205139 
L 149.020771 118.112935 
L 151.341389 135.459714 
L 152.037575 138.90767 
L 152.73376 141.413496 
L 153.429946 143.218335 
L 153.89407 144.013742 
L 154.358194 144.364417 
L 154.590255 144.329476 
L 154.822317 144.132107 
L 155.286441 143.200445 
L 155.750565 141.514063 
L 156.44675 137.624072 
L 157.142936 132.347728 
L 158.071183 123.613961 
L 158.999431 113.041348 
L 160.15974 97.235667 
L 161.784173 75.155782 
L 162.712421 65.812202 
L 163.408606 60.768911 
L 163.87273 58.700987 
L 164.104792 58.147181 
L 164.336854 57.926295 
L 164.568915 58.023454 
L 164.800977 58.40667 
L 165.265101 59.866446 
L 165.961287 63.365038 
L 166.657472 68.471114 
L 167.58572 77.833623 
L 171.994895 125.991558 
L 172.923143 132.748764 
L 173.85139 138.147479 
L 174.547576 141.152791 
L 175.011699 142.511057 
L 175.475823 143.309135 
L 175.939947 143.570662 
L 176.40407 143.357871 
L 176.868194 142.738714 
L 177.332318 141.755229 
L 178.028503 139.584476 
L 178.724689 136.443627 
L 179.420875 132.191266 
L 180.349122 124.879082 
L 181.509431 113.801262 
L 183.133864 95.896089 
L 184.990359 75.718586 
L 185.918607 68.208835 
L 186.614792 64.422332 
L 187.078916 62.81144 
L 187.54304 61.958149 
L 187.775102 61.835774 
L 188.007164 61.927217 
L 188.239225 62.235779 
L 188.703349 63.482911 
L 189.167473 65.471829 
L 189.863658 69.555427 
L 190.559844 74.834246 
L 191.488091 83.670115 
L 195.897267 128.633891 
L 196.825514 135.161386 
L 197.753762 140.190559 
L 198.449947 142.998184 
L 198.914071 144.292922 
L 199.378195 145.034608 
L 199.610257 145.181939 
L 199.842319 145.177565 
L 200.07438 145.023497 
L 200.538504 144.288066 
L 201.002628 143.035629 
L 201.698813 140.3183 
L 202.394999 136.640707 
L 203.091185 131.850465 
L 204.019432 123.427405 
L 205.179741 110.204364 
L 208.428607 71.632559 
L 209.124793 66.183446 
L 209.820979 62.595444 
L 210.285102 61.189176 
L 210.749226 60.617747 
L 210.981288 60.666067 
L 211.21335 60.94149 
L 211.677474 62.149334 
L 212.141597 64.140661 
L 212.837783 68.314767 
L 213.76603 75.670265 
L 214.92634 87.037257 
L 218.407268 122.996158 
L 219.567577 132.224082 
L 220.495824 137.832097 
L 221.19201 140.898255 
L 221.888195 142.947162 
L 222.352319 143.735667 
L 222.816443 144.053906 
L 223.048505 144.03438 
L 223.512629 143.633782 
L 223.976752 142.746437 
L 224.440876 141.368741 
L 225.137062 138.380899 
L 225.833247 134.291916 
L 226.761495 127.149292 
L 227.689742 118.166799 
L 229.082113 102.025577 
L 231.402732 74.613867 
L 232.098917 68.440336 
L 232.795103 64.022986 
L 233.259227 62.128382 
L 233.72335 61.083801 
L 233.955412 60.881206 
L 234.187474 60.891557 
L 234.419536 61.113194 
L 234.88366 62.173454 
L 235.347783 64.005685 
L 236.043969 68.02147 
L 236.972217 75.318365 
L 238.132526 86.687976 
L 241.845516 125.103027 
L 242.773763 132.453181 
L 243.702011 138.140845 
L 244.398196 141.232598 
L 245.094382 143.299661 
L 245.558505 144.102197 
L 246.022629 144.43477 
L 246.254691 144.420923 
L 246.718815 144.023827 
L 247.182938 143.122493 
L 247.647062 141.706824 
L 248.343248 138.616592 
L 249.039433 134.396928 
L 249.967681 127.116111 
L 250.895928 118.071737 
L 252.288299 101.815332 
L 254.376856 76.877293 
L 255.305104 68.320885 
L 256.001289 63.915559 
L 256.465413 62.077452 
L 256.929537 61.097731 
L 257.161599 60.916571 
L 257.39366 60.936872 
L 257.625722 61.158006 
L 258.089846 62.204471 
L 258.55397 64.044526 
L 259.250155 68.141828 
L 260.178403 75.495197 
L 261.338712 86.77159 
L 265.051702 125.031195 
L 265.979949 132.352252 
L 266.908197 138.011778 
L 267.604382 141.082597 
L 268.300568 143.138359 
L 268.764692 143.939956 
L 269.228815 144.276077 
L 269.460877 144.265569 
L 269.925001 143.878835 
L 270.389125 142.994459 
L 270.853248 141.604402 
L 271.549434 138.567816 
L 272.24562 134.404852 
L 273.173867 127.166264 
L 274.102114 118.135797 
L 275.494486 101.94774 
L 277.583042 76.898758 
L 278.51129 68.384572 
L 279.207475 63.946017 
L 279.671599 62.045912 
L 280.135723 61.026303 
L 280.367785 60.845815 
L 280.599847 60.880528 
L 280.831909 61.125077 
L 281.296032 62.216232 
L 281.760156 64.057555 
L 282.456342 68.080843 
L 283.384589 75.421656 
L 284.544898 86.783932 
L 288.257888 125.056745 
L 289.418197 133.925063 
L 290.346445 139.180675 
L 291.04263 141.95356 
L 291.506754 143.222792 
L 291.970878 144.018501 
L 292.435002 144.334295 
L 292.667063 144.310615 
L 293.131187 143.89744 
L 293.595311 142.993245 
L 294.059435 141.594389 
L 294.75562 138.561994 
L 295.451806 134.406768 
L 296.380053 127.154547 
L 297.308301 118.092699 
L 298.700672 101.908043 
L 300.789229 76.879907 
L 301.717476 68.370026 
L 302.413662 63.950823 
L 302.877785 62.058461 
L 303.341909 61.03563 
L 303.573971 60.85046 
L 303.806033 60.880193 
L 304.038095 61.121079 
L 304.502218 62.213685 
L 304.966342 64.068833 
L 305.662528 68.113541 
L 306.590775 75.436303 
L 307.751085 86.768838 
L 311.464074 125.050442 
L 312.392322 132.346024 
L 313.320569 138.024333 
L 314.016755 141.135744 
L 314.71294 143.21897 
L 315.177064 144.02013 
L 315.641188 144.341557 
L 315.87325 144.320318 
L 316.337373 143.910815 
L 316.801497 143.008809 
L 317.265621 141.611376 
L 317.961806 138.581413 
L 318.657992 134.428688 
L 319.58624 127.174665 
L 320.514487 118.102166 
L 321.906858 101.903406 
L 323.995415 76.885293 
L 324.923662 68.369057 
L 325.619848 63.942043 
L 326.083972 62.050468 
L 326.548095 61.032272 
L 326.780157 60.848965 
L 327.012219 60.879158 
L 327.244281 61.118674 
L 327.708405 62.204018 
L 328.172528 64.052004 
L 328.868714 68.101789 
L 329.796961 75.447209 
L 330.957271 86.777632 
L 334.670261 125.043687 
L 335.83057 133.918347 
L 336.758817 139.165075 
L 337.455003 141.934229 
L 338.151189 143.668545 
L 338.615312 144.234616 
L 338.847374 144.337106 
L 339.079436 144.317789 
L 339.54356 143.910134 
L 340.007683 143.006124 
L 340.471807 141.603132 
L 341.167993 138.56372 
L 341.864178 134.409691 
L 342.792426 127.16961 
L 343.720673 118.105512 
L 345.113044 101.897489 
L 347.201601 76.890501 
L 348.129849 68.370827 
L 348.826034 63.952208 
L 349.290158 62.062192 
L 349.754282 61.039542 
L 349.986343 60.853257 
L 350.218405 60.881196 
L 350.450467 61.119828 
L 350.914591 62.207619 
L 351.378715 64.059245 
L 352.0749 68.103886 
L 353.003148 75.433921 
L 354.163457 86.770492 
L 357.876447 125.057097 
L 358.804694 132.356622 
L 359.732942 138.030989 
L 360.429127 141.133389 
L 361.125313 143.209112 
L 361.589437 144.009049 
L 362.05356 144.332536 
L 362.285622 144.313162 
L 362.749746 143.90778 
L 363.21387 143.008581 
L 363.677993 141.611255 
L 364.374179 138.577059 
L 365.070365 134.420281 
L 365.998612 127.169815 
L 366.926859 118.103575 
L 368.319231 101.900153 
L 370.407787 76.886568 
L 371.336035 68.364414 
L 372.03222 63.944318 
L 372.496344 62.057991 
L 372.960468 61.040683 
L 373.19253 60.856213 
L 373.424592 60.884776 
L 373.656653 61.122759 
L 374.120777 62.206854 
L 374.584901 64.055897 
L 375.281086 68.105851 
L 376.209334 75.445523 
L 377.369643 86.773755 
L 381.082633 125.041172 
L 382.242942 133.91879 
L 383.17119 139.170388 
L 383.867375 141.938152 
L 384.331499 143.207258 
L 384.795623 144.006665 
L 385.259747 144.329304 
L 385.491808 144.309683 
L 385.955932 143.904526 
L 386.420056 143.006583 
L 386.88418 141.611045 
L 387.580365 138.578564 
L 388.276551 134.420515 
L 389.204798 127.16639 
L 390.133046 118.102739 
L 391.525417 101.907185 
L 393.613974 76.888357 
L 394.542221 68.371677 
L 395.238407 63.94526 
L 395.70253 62.054113 
L 396.166654 61.036041 
L 396.398716 60.852839 
L 396.630778 60.883275 
L 396.86284 61.123172 
L 397.326963 62.209218 
L 397.791087 64.056443 
L 398.487273 68.100744 
L 398.487273 68.100744 
" style="fill:none;stroke:#2ca02c;stroke-linecap:square;stroke-width:1.5;"/>
   </g>
   <g id="patch_3">
    <path d="M 57.6 307.584 
L 57.6 41.472 
" style="fill:none;stroke:#000000;stroke-linecap:square;stroke-linejoin:miter;stroke-width:0.8;"/>
   </g>
   <g id="patch_4">
    <path d="M 414.72 307.584 
L 414.72 41.472 
" style="fill:none;stroke:#000000;stroke-linecap:square;stroke-linejoin:miter;stroke-width:0.8;"/>
   </g>
   <g id="patch_5">
    <path d="M 57.6 307.584 
L 414.72 307.584 
" style="fill:none;stroke:#000000;stroke-linecap:square;stroke-linejoin:miter;stroke-width:0.8;"/>
   </g>
   <g id="patch_6">
    <path d="M 57.6 41.472 
L 414.72 41.472 
" style="fill:none;stroke:#000000;stroke-linecap:square;stroke-linejoin:miter;stroke-width:0.8;"/>
   </g>
   <g id="text_17">
    <!-- Absolut Y-Position of movingWall -->
    <defs>
     <path d="M 34.1875 63.1875 
L 20.796875 26.90625 
L 47.609375 26.90625 
z
M 28.609375 72.90625 
L 39.796875 72.90625 
L 67.578125 0 
L 57.328125 0 
L 50.6875 18.703125 
L 17.828125 18.703125 
L 11.1875 0 
L 0.78125 0 
z
" id="DejaVuSans-65"/>
     <path d="M 48.6875 27.296875 
Q 48.6875 37.203125 44.609375 42.84375 
Q 40.53125 48.484375 33.40625 48.484375 
Q 26.265625 48.484375 22.1875 42.84375 
Q 18.109375 37.203125 18.109375 27.296875 
Q 18.109375 17.390625 22.1875 11.75 
Q 26.265625 6.109375 33.40625 6.109375 
Q 40.53125 6.109375 44.609375 11.75 
Q 48.6875 17.390625 48.6875 27.296875 
z
M 18.109375 46.390625 
Q 20.953125 51.265625 25.265625 53.625 
Q 29.59375 56 35.59375 56 
Q 45.5625 56 51.78125 48.09375 
Q 58.015625 40.1875 58.015625 27.296875 
Q 58.015625 14.40625 51.78125 6.484375 
Q 45.5625 -1.421875 35.59375 -1.421875 
Q 29.59375 -1.421875 25.265625 0.953125 
Q 20.953125 3.328125 18.109375 8.203125 
L 18.109375 0 
L 9.078125 0 
L 9.078125 75.984375 
L 18.109375 75.984375 
z
" id="DejaVuSans-98"/>
     <path d="M 44.28125 53.078125 
L 44.28125 44.578125 
Q 40.484375 46.53125 36.375 47.5 
Q 32.28125 48.484375 27.875 48.484375 
Q 21.1875 48.484375 17.84375 46.4375 
Q 14.5 44.390625 14.5 40.28125 
Q 14.5 37.15625 16.890625 35.375 
Q 19.28125 33.59375 26.515625 31.984375 
L 29.59375 31.296875 
Q 39.15625 29.25 43.1875 25.515625 
Q 47.21875 21.78125 47.21875 15.09375 
Q 47.21875 7.46875 41.1875 3.015625 
Q 35.15625 -1.421875 24.609375 -1.421875 
Q 20.21875 -1.421875 15.453125 -0.5625 
Q 10.6875 0.296875 5.421875 2 
L 5.421875 11.28125 
Q 10.40625 8.6875 15.234375 7.390625 
Q 20.0625 6.109375 24.8125 6.109375 
Q 31.15625 6.109375 34.5625 8.28125 
Q 37.984375 10.453125 37.984375 14.40625 
Q 37.984375 18.0625 35.515625 20.015625 
Q 33.0625 21.96875 24.703125 23.78125 
L 21.578125 24.515625 
Q 13.234375 26.265625 9.515625 29.90625 
Q 5.8125 33.546875 5.8125 39.890625 
Q 5.8125 47.609375 11.28125 51.796875 
Q 16.75 56 26.8125 56 
Q 31.78125 56 36.171875 55.265625 
Q 40.578125 54.546875 44.28125 53.078125 
z
" id="DejaVuSans-115"/>
     <path d="M 30.609375 48.390625 
Q 23.390625 48.390625 19.1875 42.75 
Q 14.984375 37.109375 14.984375 27.296875 
Q 14.984375 17.484375 19.15625 11.84375 
Q 23.34375 6.203125 30.609375 6.203125 
Q 37.796875 6.203125 41.984375 11.859375 
Q 46.1875 17.53125 46.1875 27.296875 
Q 46.1875 37.015625 41.984375 42.703125 
Q 37.796875 48.390625 30.609375 48.390625 
z
M 30.609375 56 
Q 42.328125 56 49.015625 48.375 
Q 55.71875 40.765625 55.71875 27.296875 
Q 55.71875 13.875 49.015625 6.21875 
Q 42.328125 -1.421875 30.609375 -1.421875 
Q 18.84375 -1.421875 12.171875 6.21875 
Q 5.515625 13.875 5.515625 27.296875 
Q 5.515625 40.765625 12.171875 48.375 
Q 18.84375 56 30.609375 56 
z
" id="DejaVuSans-111"/>
     <path d="M 9.421875 75.984375 
L 18.40625 75.984375 
L 18.40625 0 
L 9.421875 0 
z
" id="DejaVuSans-108"/>
     <path d="M 8.5 21.578125 
L 8.5 54.6875 
L 17.484375 54.6875 
L 17.484375 21.921875 
Q 17.484375 14.15625 20.5 10.265625 
Q 23.53125 6.390625 29.59375 6.390625 
Q 36.859375 6.390625 41.078125 11.03125 
Q 45.3125 15.671875 45.3125 23.6875 
L 45.3125 54.6875 
L 54.296875 54.6875 
L 54.296875 0 
L 45.3125 0 
L 45.3125 8.40625 
Q 42.046875 3.421875 37.71875 1 
Q 33.40625 -1.421875 27.6875 -1.421875 
Q 18.265625 -1.421875 13.375 4.4375 
Q 8.5 10.296875 8.5 21.578125 
z
M 31.109375 56 
z
" id="DejaVuSans-117"/>
     <path id="DejaVuSans-32"/>
     <path d="M 4.890625 31.390625 
L 31.203125 31.390625 
L 31.203125 23.390625 
L 4.890625 23.390625 
z
" id="DejaVuSans-45"/>
     <path d="M 19.671875 64.796875 
L 19.671875 37.40625 
L 32.078125 37.40625 
Q 38.96875 37.40625 42.71875 40.96875 
Q 46.484375 44.53125 46.484375 51.125 
Q 46.484375 57.671875 42.71875 61.234375 
Q 38.96875 64.796875 32.078125 64.796875 
z
M 9.8125 72.90625 
L 32.078125 72.90625 
Q 44.34375 72.90625 50.609375 67.359375 
Q 56.890625 61.8125 56.890625 51.125 
Q 56.890625 40.328125 50.609375 34.8125 
Q 44.34375 29.296875 32.078125 29.296875 
L 19.671875 29.296875 
L 19.671875 0 
L 9.8125 0 
z
" id="DejaVuSans-80"/>
     <path d="M 9.421875 54.6875 
L 18.40625 54.6875 
L 18.40625 0 
L 9.421875 0 
z
M 9.421875 75.984375 
L 18.40625 75.984375 
L 18.40625 64.59375 
L 9.421875 64.59375 
z
" id="DejaVuSans-105"/>
     <path d="M 54.890625 33.015625 
L 54.890625 0 
L 45.90625 0 
L 45.90625 32.71875 
Q 45.90625 40.484375 42.875 44.328125 
Q 39.84375 48.1875 33.796875 48.1875 
Q 26.515625 48.1875 22.3125 43.546875 
Q 18.109375 38.921875 18.109375 30.90625 
L 18.109375 0 
L 9.078125 0 
L 9.078125 54.6875 
L 18.109375 54.6875 
L 18.109375 46.1875 
Q 21.34375 51.125 25.703125 53.5625 
Q 30.078125 56 35.796875 56 
Q 45.21875 56 50.046875 50.171875 
Q 54.890625 44.34375 54.890625 33.015625 
z
" id="DejaVuSans-110"/>
     <path d="M 37.109375 75.984375 
L 37.109375 68.5 
L 28.515625 68.5 
Q 23.6875 68.5 21.796875 66.546875 
Q 19.921875 64.59375 19.921875 59.515625 
L 19.921875 54.6875 
L 34.71875 54.6875 
L 34.71875 47.703125 
L 19.921875 47.703125 
L 19.921875 0 
L 10.890625 0 
L 10.890625 47.703125 
L 2.296875 47.703125 
L 2.296875 54.6875 
L 10.890625 54.6875 
L 10.890625 58.5 
Q 10.890625 67.625 15.140625 71.796875 
Q 19.390625 75.984375 28.609375 75.984375 
z
" id="DejaVuSans-102"/>
     <path d="M 52 44.1875 
Q 55.375 50.25 60.0625 53.125 
Q 64.75 56 71.09375 56 
Q 79.640625 56 84.28125 50.015625 
Q 88.921875 44.046875 88.921875 33.015625 
L 88.921875 0 
L 79.890625 0 
L 79.890625 32.71875 
Q 79.890625 40.578125 77.09375 44.375 
Q 74.3125 48.1875 68.609375 48.1875 
Q 61.625 48.1875 57.5625 43.546875 
Q 53.515625 38.921875 53.515625 30.90625 
L 53.515625 0 
L 44.484375 0 
L 44.484375 32.71875 
Q 44.484375 40.625 41.703125 44.40625 
Q 38.921875 48.1875 33.109375 48.1875 
Q 26.21875 48.1875 22.15625 43.53125 
Q 18.109375 38.875 18.109375 30.90625 
L 18.109375 0 
L 9.078125 0 
L 9.078125 54.6875 
L 18.109375 54.6875 
L 18.109375 46.1875 
Q 21.1875 51.21875 25.484375 53.609375 
Q 29.78125 56 35.6875 56 
Q 41.65625 56 45.828125 52.96875 
Q 50 49.953125 52 44.1875 
z
" id="DejaVuSans-109"/>
     <path d="M 2.984375 54.6875 
L 12.5 54.6875 
L 29.59375 8.796875 
L 46.6875 54.6875 
L 56.203125 54.6875 
L 35.6875 0 
L 23.484375 0 
z
" id="DejaVuSans-118"/>
     <path d="M 45.40625 27.984375 
Q 45.40625 37.75 41.375 43.109375 
Q 37.359375 48.484375 30.078125 48.484375 
Q 22.859375 48.484375 18.828125 43.109375 
Q 14.796875 37.75 14.796875 27.984375 
Q 14.796875 18.265625 18.828125 12.890625 
Q 22.859375 7.515625 30.078125 7.515625 
Q 37.359375 7.515625 41.375 12.890625 
Q 45.40625 18.265625 45.40625 27.984375 
z
M 54.390625 6.78125 
Q 54.390625 -7.171875 48.1875 -13.984375 
Q 42 -20.796875 29.203125 -20.796875 
Q 24.46875 -20.796875 20.265625 -20.09375 
Q 16.0625 -19.390625 12.109375 -17.921875 
L 12.109375 -9.1875 
Q 16.0625 -11.328125 19.921875 -12.34375 
Q 23.78125 -13.375 27.78125 -13.375 
Q 36.625 -13.375 41.015625 -8.765625 
Q 45.40625 -4.15625 45.40625 5.171875 
L 45.40625 9.625 
Q 42.625 4.78125 38.28125 2.390625 
Q 33.9375 0 27.875 0 
Q 17.828125 0 11.671875 7.65625 
Q 5.515625 15.328125 5.515625 27.984375 
Q 5.515625 40.671875 11.671875 48.328125 
Q 17.828125 56 27.875 56 
Q 33.9375 56 38.28125 53.609375 
Q 42.625 51.21875 45.40625 46.390625 
L 45.40625 54.6875 
L 54.390625 54.6875 
z
" id="DejaVuSans-103"/>
     <path d="M 3.328125 72.90625 
L 13.28125 72.90625 
L 28.609375 11.28125 
L 43.890625 72.90625 
L 54.984375 72.90625 
L 70.3125 11.28125 
L 85.59375 72.90625 
L 95.609375 72.90625 
L 77.296875 0 
L 64.890625 0 
L 49.515625 63.28125 
L 33.984375 0 
L 21.578125 0 
z
" id="DejaVuSans-87"/>
     <path d="M 34.28125 27.484375 
Q 23.390625 27.484375 19.1875 25 
Q 14.984375 22.515625 14.984375 16.5 
Q 14.984375 11.71875 18.140625 8.90625 
Q 21.296875 6.109375 26.703125 6.109375 
Q 34.1875 6.109375 38.703125 11.40625 
Q 43.21875 16.703125 43.21875 25.484375 
L 43.21875 27.484375 
z
M 52.203125 31.203125 
L 52.203125 0 
L 43.21875 0 
L 43.21875 8.296875 
Q 40.140625 3.328125 35.546875 0.953125 
Q 30.953125 -1.421875 24.3125 -1.421875 
Q 15.921875 -1.421875 10.953125 3.296875 
Q 6 8.015625 6 15.921875 
Q 6 25.140625 12.171875 29.828125 
Q 18.359375 34.515625 30.609375 34.515625 
L 43.21875 34.515625 
L 43.21875 35.40625 
Q 43.21875 41.609375 39.140625 45 
Q 35.0625 48.390625 27.6875 48.390625 
Q 23 48.390625 18.546875 47.265625 
Q 14.109375 46.140625 10.015625 43.890625 
L 10.015625 52.203125 
Q 14.9375 54.109375 19.578125 55.046875 
Q 24.21875 56 28.609375 56 
Q 40.484375 56 46.34375 49.84375 
Q 52.203125 43.703125 52.203125 31.203125 
z
" id="DejaVuSans-97"/>
    </defs>
    <g transform="translate(137.450625 35.472)scale(0.12 -0.12)">
     <use xlink:href="#DejaVuSans-65"/>
     <use x="68.408203" xlink:href="#DejaVuSans-98"/>
     <use x="131.884766" xlink:href="#DejaVuSans-115"/>
     <use x="183.984375" xlink:href="#DejaVuSans-111"/>
     <use x="245.166016" xlink:href="#DejaVuSans-108"/>
     <use x="272.949219" xlink:href="#DejaVuSans-117"/>
     <use x="336.328125" xlink:href="#DejaVuSans-116"/>
     <use x="375.537109" xlink:href="#DejaVuSans-32"/>
     <use x="407.324219" xlink:href="#DejaVuSans-89"/>
     <use x="468.236328" xlink:href="#DejaVuSans-45"/>
     <use x="504.320312" xlink:href="#DejaVuSans-80"/>
     <use x="564.576172" xlink:href="#DejaVuSans-111"/>
     <use x="625.757812" xlink:href="#DejaVuSans-115"/>
     <use x="677.857422" xlink:href="#DejaVuSans-105"/>
     <use x="705.640625" xlink:href="#DejaVuSans-116"/>
     <use x="744.849609" xlink:href="#DejaVuSans-105"/>
     <use x="772.632812" xlink:href="#DejaVuSans-111"/>
     <use x="833.814453" xlink:href="#DejaVuSans-110"/>
     <use x="897.193359" xlink:href="#DejaVuSans-32"/>
     <use x="928.980469" xlink:href="#DejaVuSans-111"/>
     <use x="990.162109" xlink:href="#DejaVuSans-102"/>
     <use x="1025.367188" xlink:href="#DejaVuSans-32"/>
     <use x="1057.154297" xlink:href="#DejaVuSans-109"/>
     <use x="1154.566406" xlink:href="#DejaVuSans-111"/>
     <use x="1215.748047" xlink:href="#DejaVuSans-118"/>
     <use x="1274.927734" xlink:href="#DejaVuSans-105"/>
     <use x="1302.710938" xlink:href="#DejaVuSans-110"/>
     <use x="1366.089844" xlink:href="#DejaVuSans-103"/>
     <use x="1429.566406" xlink:href="#DejaVuSans-87"/>
     <use x="1528.349609" xlink:href="#DejaVuSans-97"/>
     <use x="1589.628906" xlink:href="#DejaVuSans-108"/>
     <use x="1617.412109" xlink:href="#DejaVuSans-108"/>
    </g>
   </g>
   <g id="legend_1">
    <g id="patch_7">
     <path d="M 332.748125 302.584 
L 407.72 302.584 
Q 409.72 302.584 409.72 300.584 
L 409.72 257.549625 
Q 409.72 255.549625 407.72 255.549625 
L 332.748125 255.549625 
Q 330.748125 255.549625 330.748125 257.549625 
L 330.748125 300.584 
Q 330.748125 302.584 332.748125 302.584 
z
" style="fill:#ffffff;opacity:0.8;stroke:#cccccc;stroke-linejoin:miter;"/>
    </g>
    <g id="line2d_32">
     <path d="M 334.748125 263.648062 
L 354.748125 263.648062 
" style="fill:none;stroke:#1f77b4;stroke-dasharray:5.55,2.4;stroke-dashoffset:0;stroke-width:1.5;"/>
    </g>
    <g id="line2d_33"/>
    <g id="text_18">
     <!-- previous -->
     <defs>
      <path d="M 18.109375 8.203125 
L 18.109375 -20.796875 
L 9.078125 -20.796875 
L 9.078125 54.6875 
L 18.109375 54.6875 
L 18.109375 46.390625 
Q 20.953125 51.265625 25.265625 53.625 
Q 29.59375 56 35.59375 56 
Q 45.5625 56 51.78125 48.09375 
Q 58.015625 40.1875 58.015625 27.296875 
Q 58.015625 14.40625 51.78125 6.484375 
Q 45.5625 -1.421875 35.59375 -1.421875 
Q 29.59375 -1.421875 25.265625 0.953125 
Q 20.953125 3.328125 18.109375 8.203125 
z
M 48.6875 27.296875 
Q 48.6875 37.203125 44.609375 42.84375 
Q 40.53125 48.484375 33.40625 48.484375 
Q 26.265625 48.484375 22.1875 42.84375 
Q 18.109375 37.203125 18.109375 27.296875 
Q 18.109375 17.390625 22.1875 11.75 
Q 26.265625 6.109375 33.40625 6.109375 
Q 40.53125 6.109375 44.609375 11.75 
Q 48.6875 17.390625 48.6875 27.296875 
z
" id="DejaVuSans-112"/>
      <path d="M 41.109375 46.296875 
Q 39.59375 47.171875 37.8125 47.578125 
Q 36.03125 48 33.890625 48 
Q 26.265625 48 22.1875 43.046875 
Q 18.109375 38.09375 18.109375 28.8125 
L 18.109375 0 
L 9.078125 0 
L 9.078125 54.6875 
L 18.109375 54.6875 
L 18.109375 46.1875 
Q 20.953125 51.171875 25.484375 53.578125 
Q 30.03125 56 36.53125 56 
Q 37.453125 56 38.578125 55.875 
Q 39.703125 55.765625 41.0625 55.515625 
z
" id="DejaVuSans-114"/>
      <path d="M 56.203125 29.59375 
L 56.203125 25.203125 
L 14.890625 25.203125 
Q 15.484375 15.921875 20.484375 11.0625 
Q 25.484375 6.203125 34.421875 6.203125 
Q 39.59375 6.203125 44.453125 7.46875 
Q 49.3125 8.734375 54.109375 11.28125 
L 54.109375 2.78125 
Q 49.265625 0.734375 44.1875 -0.34375 
Q 39.109375 -1.421875 33.890625 -1.421875 
Q 20.796875 -1.421875 13.15625 6.1875 
Q 5.515625 13.8125 5.515625 26.8125 
Q 5.515625 40.234375 12.765625 48.109375 
Q 20.015625 56 32.328125 56 
Q 43.359375 56 49.78125 48.890625 
Q 56.203125 41.796875 56.203125 29.59375 
z
M 47.21875 32.234375 
Q 47.125 39.59375 43.09375 43.984375 
Q 39.0625 48.390625 32.421875 48.390625 
Q 24.90625 48.390625 20.390625 44.140625 
Q 15.875 39.890625 15.1875 32.171875 
z
" id="DejaVuSans-101"/>
     </defs>
     <g transform="translate(362.748125 267.148062)scale(0.1 -0.1)">
      <use xlink:href="#DejaVuSans-112"/>
      <use x="63.476562" xlink:href="#DejaVuSans-114"/>
      <use x="104.558594" xlink:href="#DejaVuSans-101"/>
      <use x="166.082031" xlink:href="#DejaVuSans-118"/>
      <use x="225.261719" xlink:href="#DejaVuSans-105"/>
      <use x="253.044922" xlink:href="#DejaVuSans-111"/>
      <use x="314.226562" xlink:href="#DejaVuSans-117"/>
      <use x="377.605469" xlink:href="#DejaVuSans-115"/>
     </g>
    </g>
    <g id="line2d_34">
     <path d="M 334.748125 278.326188 
L 354.748125 278.326188 
" style="fill:none;stroke:#ff7f0e;stroke-dasharray:5.55,2.4;stroke-dashoffset:0;stroke-width:1.5;"/>
    </g>
    <g id="line2d_35"/>
    <g id="text_19">
     <!-- valdez -->
     <defs>
      <path d="M 45.40625 46.390625 
L 45.40625 75.984375 
L 54.390625 75.984375 
L 54.390625 0 
L 45.40625 0 
L 45.40625 8.203125 
Q 42.578125 3.328125 38.25 0.953125 
Q 33.9375 -1.421875 27.875 -1.421875 
Q 17.96875 -1.421875 11.734375 6.484375 
Q 5.515625 14.40625 5.515625 27.296875 
Q 5.515625 40.1875 11.734375 48.09375 
Q 17.96875 56 27.875 56 
Q 33.9375 56 38.25 53.625 
Q 42.578125 51.265625 45.40625 46.390625 
z
M 14.796875 27.296875 
Q 14.796875 17.390625 18.875 11.75 
Q 22.953125 6.109375 30.078125 6.109375 
Q 37.203125 6.109375 41.296875 11.75 
Q 45.40625 17.390625 45.40625 27.296875 
Q 45.40625 37.203125 41.296875 42.84375 
Q 37.203125 48.484375 30.078125 48.484375 
Q 22.953125 48.484375 18.875 42.84375 
Q 14.796875 37.203125 14.796875 27.296875 
z
" id="DejaVuSans-100"/>
      <path d="M 5.515625 54.6875 
L 48.1875 54.6875 
L 48.1875 46.484375 
L 14.40625 7.171875 
L 48.1875 7.171875 
L 48.1875 0 
L 4.296875 0 
L 4.296875 8.203125 
L 38.09375 47.515625 
L 5.515625 47.515625 
z
" id="DejaVuSans-122"/>
     </defs>
     <g transform="translate(362.748125 281.826188)scale(0.1 -0.1)">
      <use xlink:href="#DejaVuSans-118"/>
      <use x="59.179688" xlink:href="#DejaVuSans-97"/>
      <use x="120.458984" xlink:href="#DejaVuSans-108"/>
      <use x="148.242188" xlink:href="#DejaVuSans-100"/>
      <use x="211.71875" xlink:href="#DejaVuSans-101"/>
      <use x="273.242188" xlink:href="#DejaVuSans-122"/>
     </g>
    </g>
    <g id="line2d_36">
     <path d="M 334.748125 293.004312 
L 354.748125 293.004312 
" style="fill:none;stroke:#2ca02c;stroke-linecap:square;stroke-width:1.5;"/>
    </g>
    <g id="line2d_37"/>
    <g id="text_20">
     <!-- current -->
     <defs>
      <path d="M 48.78125 52.59375 
L 48.78125 44.1875 
Q 44.96875 46.296875 41.140625 47.34375 
Q 37.3125 48.390625 33.40625 48.390625 
Q 24.65625 48.390625 19.8125 42.84375 
Q 14.984375 37.3125 14.984375 27.296875 
Q 14.984375 17.28125 19.8125 11.734375 
Q 24.65625 6.203125 33.40625 6.203125 
Q 37.3125 6.203125 41.140625 7.25 
Q 44.96875 8.296875 48.78125 10.40625 
L 48.78125 2.09375 
Q 45.015625 0.34375 40.984375 -0.53125 
Q 36.96875 -1.421875 32.421875 -1.421875 
Q 20.0625 -1.421875 12.78125 6.34375 
Q 5.515625 14.109375 5.515625 27.296875 
Q 5.515625 40.671875 12.859375 48.328125 
Q 20.21875 56 33.015625 56 
Q 37.15625 56 41.109375 55.140625 
Q 45.0625 54.296875 48.78125 52.59375 
z
" id="DejaVuSans-99"/>
     </defs>
     <g transform="translate(362.748125 296.504312)scale(0.1 -0.1)">
      <use xlink:href="#DejaVuSans-99"/>
      <use x="54.980469" xlink:href="#DejaVuSans-117"/>
      <use x="118.359375" xlink:href="#DejaVuSans-114"/>
      <use x="159.457031" xlink:href="#DejaVuSans-114"/>
      <use x="200.539062" xlink:href="#DejaVuSans-101"/>
      <use x="262.0625" xlink:href="#DejaVuSans-110"/>
      <use x="325.441406" xlink:href="#DejaVuSans-116"/>
     </g>
    </g>
   </g>
  </g>
 </g>
 <defs>
  <clipPath id="p3e6cdc5dfd">
   <rect height="266.112" width="357.12" x="57.6" y="41.472"/>
  </clipPath>
 </defs>
</svg>
