<?xml version="1.0" encoding="utf-8" standalone="no"?>
<!DOCTYPE svg PUBLIC "-//W3C//DTD SVG 1.1//EN"
  "http://www.w3.org/Graphics/SVG/1.1/DTD/svg11.dtd">
<!-- Created with matplotlib (http://matplotlib.org/) -->
<svg height="345.6pt" version="1.1" viewBox="0 0 460.8 345.6" width="460.8pt" xmlns="http://www.w3.org/2000/svg" xmlns:xlink="http://www.w3.org/1999/xlink">
 <defs>
  <style type="text/css">
*{stroke-linecap:butt;stroke-linejoin:round;}
  </style>
 </defs>
 <g id="figure_1">
  <g id="patch_1">
   <path d="M 0 345.6 
L 460.8 345.6 
L 460.8 0 
L 0 0 
z
" style="fill:#ffffff;"/>
  </g>
  <g id="axes_1">
   <g id="patch_2">
    <path d="M 57.6 307.584 
L 414.72 307.584 
L 414.72 41.472 
L 57.6 41.472 
z
" style="fill:#ffffff;"/>
   </g>
   <g id="matplotlib.axis_1">
    <g id="xtick_1">
     <g id="line2d_1">
      <defs>
       <path d="M 0 0 
L 0 3.5 
" id="m0ce1f1706d" style="stroke:#000000;stroke-width:0.8;"/>
      </defs>
      <g>
       <use style="stroke:#000000;stroke-width:0.8;" x="57.6" xlink:href="#m0ce1f1706d" y="307.584"/>
      </g>
     </g>
     <g id="text_1">
      <!-- 0 -->
      <defs>
       <path d="M 31.78125 66.40625 
Q 24.171875 66.40625 20.328125 58.90625 
Q 16.5 51.421875 16.5 36.375 
Q 16.5 21.390625 20.328125 13.890625 
Q 24.171875 6.390625 31.78125 6.390625 
Q 39.453125 6.390625 43.28125 13.890625 
Q 47.125 21.390625 47.125 36.375 
Q 47.125 51.421875 43.28125 58.90625 
Q 39.453125 66.40625 31.78125 66.40625 
z
M 31.78125 74.21875 
Q 44.046875 74.21875 50.515625 64.515625 
Q 56.984375 54.828125 56.984375 36.375 
Q 56.984375 17.96875 50.515625 8.265625 
Q 44.046875 -1.421875 31.78125 -1.421875 
Q 19.53125 -1.421875 13.0625 8.265625 
Q 6.59375 17.96875 6.59375 36.375 
Q 6.59375 54.828125 13.0625 64.515625 
Q 19.53125 74.21875 31.78125 74.21875 
z
" id="DejaVuSans-30"/>
      </defs>
      <g transform="translate(54.41875 322.182437)scale(0.1 -0.1)">
       <use xlink:href="#DejaVuSans-30"/>
      </g>
     </g>
    </g>
    <g id="xtick_2">
     <g id="line2d_2">
      <g>
       <use style="stroke:#000000;stroke-width:0.8;" x="129.024" xlink:href="#m0ce1f1706d" y="307.584"/>
      </g>
     </g>
     <g id="text_2">
      <!-- 10 -->
      <defs>
       <path d="M 12.40625 8.296875 
L 28.515625 8.296875 
L 28.515625 63.921875 
L 10.984375 60.40625 
L 10.984375 69.390625 
L 28.421875 72.90625 
L 38.28125 72.90625 
L 38.28125 8.296875 
L 54.390625 8.296875 
L 54.390625 0 
L 12.40625 0 
z
" id="DejaVuSans-31"/>
      </defs>
      <g transform="translate(122.6615 322.182437)scale(0.1 -0.1)">
       <use xlink:href="#DejaVuSans-31"/>
       <use x="63.623047" xlink:href="#DejaVuSans-30"/>
      </g>
     </g>
    </g>
    <g id="xtick_3">
     <g id="line2d_3">
      <g>
       <use style="stroke:#000000;stroke-width:0.8;" x="200.448" xlink:href="#m0ce1f1706d" y="307.584"/>
      </g>
     </g>
     <g id="text_3">
      <!-- 20 -->
      <defs>
       <path d="M 19.1875 8.296875 
L 53.609375 8.296875 
L 53.609375 0 
L 7.328125 0 
L 7.328125 8.296875 
Q 12.9375 14.109375 22.625 23.890625 
Q 32.328125 33.6875 34.8125 36.53125 
Q 39.546875 41.84375 41.421875 45.53125 
Q 43.3125 49.21875 43.3125 52.78125 
Q 43.3125 58.59375 39.234375 62.25 
Q 35.15625 65.921875 28.609375 65.921875 
Q 23.96875 65.921875 18.8125 64.3125 
Q 13.671875 62.703125 7.8125 59.421875 
L 7.8125 69.390625 
Q 13.765625 71.78125 18.9375 73 
Q 24.125 74.21875 28.421875 74.21875 
Q 39.75 74.21875 46.484375 68.546875 
Q 53.21875 62.890625 53.21875 53.421875 
Q 53.21875 48.921875 51.53125 44.890625 
Q 49.859375 40.875 45.40625 35.40625 
Q 44.1875 33.984375 37.640625 27.21875 
Q 31.109375 20.453125 19.1875 8.296875 
z
" id="DejaVuSans-32"/>
      </defs>
      <g transform="translate(194.0855 322.182437)scale(0.1 -0.1)">
       <use xlink:href="#DejaVuSans-32"/>
       <use x="63.623047" xlink:href="#DejaVuSans-30"/>
      </g>
     </g>
    </g>
    <g id="xtick_4">
     <g id="line2d_4">
      <g>
       <use style="stroke:#000000;stroke-width:0.8;" x="271.872" xlink:href="#m0ce1f1706d" y="307.584"/>
      </g>
     </g>
     <g id="text_4">
      <!-- 30 -->
      <defs>
       <path d="M 40.578125 39.3125 
Q 47.65625 37.796875 51.625 33 
Q 55.609375 28.21875 55.609375 21.1875 
Q 55.609375 10.40625 48.1875 4.484375 
Q 40.765625 -1.421875 27.09375 -1.421875 
Q 22.515625 -1.421875 17.65625 -0.515625 
Q 12.796875 0.390625 7.625 2.203125 
L 7.625 11.71875 
Q 11.71875 9.328125 16.59375 8.109375 
Q 21.484375 6.890625 26.8125 6.890625 
Q 36.078125 6.890625 40.9375 10.546875 
Q 45.796875 14.203125 45.796875 21.1875 
Q 45.796875 27.640625 41.28125 31.265625 
Q 36.765625 34.90625 28.71875 34.90625 
L 20.21875 34.90625 
L 20.21875 43.015625 
L 29.109375 43.015625 
Q 36.375 43.015625 40.234375 45.921875 
Q 44.09375 48.828125 44.09375 54.296875 
Q 44.09375 59.90625 40.109375 62.90625 
Q 36.140625 65.921875 28.71875 65.921875 
Q 24.65625 65.921875 20.015625 65.03125 
Q 15.375 64.15625 9.8125 62.3125 
L 9.8125 71.09375 
Q 15.4375 72.65625 20.34375 73.4375 
Q 25.25 74.21875 29.59375 74.21875 
Q 40.828125 74.21875 47.359375 69.109375 
Q 53.90625 64.015625 53.90625 55.328125 
Q 53.90625 49.265625 50.4375 45.09375 
Q 46.96875 40.921875 40.578125 39.3125 
z
" id="DejaVuSans-33"/>
      </defs>
      <g transform="translate(265.5095 322.182437)scale(0.1 -0.1)">
       <use xlink:href="#DejaVuSans-33"/>
       <use x="63.623047" xlink:href="#DejaVuSans-30"/>
      </g>
     </g>
    </g>
    <g id="xtick_5">
     <g id="line2d_5">
      <g>
       <use style="stroke:#000000;stroke-width:0.8;" x="343.296" xlink:href="#m0ce1f1706d" y="307.584"/>
      </g>
     </g>
     <g id="text_5">
      <!-- 40 -->
      <defs>
       <path d="M 37.796875 64.3125 
L 12.890625 25.390625 
L 37.796875 25.390625 
z
M 35.203125 72.90625 
L 47.609375 72.90625 
L 47.609375 25.390625 
L 58.015625 25.390625 
L 58.015625 17.1875 
L 47.609375 17.1875 
L 47.609375 0 
L 37.796875 0 
L 37.796875 17.1875 
L 4.890625 17.1875 
L 4.890625 26.703125 
z
" id="DejaVuSans-34"/>
      </defs>
      <g transform="translate(336.9335 322.182437)scale(0.1 -0.1)">
       <use xlink:href="#DejaVuSans-34"/>
       <use x="63.623047" xlink:href="#DejaVuSans-30"/>
      </g>
     </g>
    </g>
    <g id="xtick_6">
     <g id="line2d_6">
      <g>
       <use style="stroke:#000000;stroke-width:0.8;" x="414.72" xlink:href="#m0ce1f1706d" y="307.584"/>
      </g>
     </g>
     <g id="text_6">
      <!-- 50 -->
      <defs>
       <path d="M 10.796875 72.90625 
L 49.515625 72.90625 
L 49.515625 64.59375 
L 19.828125 64.59375 
L 19.828125 46.734375 
Q 21.96875 47.46875 24.109375 47.828125 
Q 26.265625 48.1875 28.421875 48.1875 
Q 40.625 48.1875 47.75 41.5 
Q 54.890625 34.8125 54.890625 23.390625 
Q 54.890625 11.625 47.5625 5.09375 
Q 40.234375 -1.421875 26.90625 -1.421875 
Q 22.3125 -1.421875 17.546875 -0.640625 
Q 12.796875 0.140625 7.71875 1.703125 
L 7.71875 11.625 
Q 12.109375 9.234375 16.796875 8.0625 
Q 21.484375 6.890625 26.703125 6.890625 
Q 35.15625 6.890625 40.078125 11.328125 
Q 45.015625 15.765625 45.015625 23.390625 
Q 45.015625 31 40.078125 35.4375 
Q 35.15625 39.890625 26.703125 39.890625 
Q 22.75 39.890625 18.8125 39.015625 
Q 14.890625 38.140625 10.796875 36.28125 
z
" id="DejaVuSans-35"/>
      </defs>
      <g transform="translate(408.3575 322.182437)scale(0.1 -0.1)">
       <use xlink:href="#DejaVuSans-35"/>
       <use x="63.623047" xlink:href="#DejaVuSans-30"/>
      </g>
     </g>
    </g>
    <g id="text_7">
     <!-- Time -->
     <defs>
      <path d="M -0.296875 72.90625 
L 61.375 72.90625 
L 61.375 64.59375 
L 35.5 64.59375 
L 35.5 0 
L 25.59375 0 
L 25.59375 64.59375 
L -0.296875 64.59375 
z
" id="DejaVuSans-54"/>
      <path d="M 9.421875 54.6875 
L 18.40625 54.6875 
L 18.40625 0 
L 9.421875 0 
z
M 9.421875 75.984375 
L 18.40625 75.984375 
L 18.40625 64.59375 
L 9.421875 64.59375 
z
" id="DejaVuSans-69"/>
      <path d="M 52 44.1875 
Q 55.375 50.25 60.0625 53.125 
Q 64.75 56 71.09375 56 
Q 79.640625 56 84.28125 50.015625 
Q 88.921875 44.046875 88.921875 33.015625 
L 88.921875 0 
L 79.890625 0 
L 79.890625 32.71875 
Q 79.890625 40.578125 77.09375 44.375 
Q 74.3125 48.1875 68.609375 48.1875 
Q 61.625 48.1875 57.5625 43.546875 
Q 53.515625 38.921875 53.515625 30.90625 
L 53.515625 0 
L 44.484375 0 
L 44.484375 32.71875 
Q 44.484375 40.625 41.703125 44.40625 
Q 38.921875 48.1875 33.109375 48.1875 
Q 26.21875 48.1875 22.15625 43.53125 
Q 18.109375 38.875 18.109375 30.90625 
L 18.109375 0 
L 9.078125 0 
L 9.078125 54.6875 
L 18.109375 54.6875 
L 18.109375 46.1875 
Q 21.1875 51.21875 25.484375 53.609375 
Q 29.78125 56 35.6875 56 
Q 41.65625 56 45.828125 52.96875 
Q 50 49.953125 52 44.1875 
z
" id="DejaVuSans-6d"/>
      <path d="M 56.203125 29.59375 
L 56.203125 25.203125 
L 14.890625 25.203125 
Q 15.484375 15.921875 20.484375 11.0625 
Q 25.484375 6.203125 34.421875 6.203125 
Q 39.59375 6.203125 44.453125 7.46875 
Q 49.3125 8.734375 54.109375 11.28125 
L 54.109375 2.78125 
Q 49.265625 0.734375 44.1875 -0.34375 
Q 39.109375 -1.421875 33.890625 -1.421875 
Q 20.796875 -1.421875 13.15625 6.1875 
Q 5.515625 13.8125 5.515625 26.8125 
Q 5.515625 40.234375 12.765625 48.109375 
Q 20.015625 56 32.328125 56 
Q 43.359375 56 49.78125 48.890625 
Q 56.203125 41.796875 56.203125 29.59375 
z
M 47.21875 32.234375 
Q 47.125 39.59375 43.09375 43.984375 
Q 39.0625 48.390625 32.421875 48.390625 
Q 24.90625 48.390625 20.390625 44.140625 
Q 15.875 39.890625 15.1875 32.171875 
z
" id="DejaVuSans-65"/>
     </defs>
     <g transform="translate(223.7725 335.860562)scale(0.1 -0.1)">
      <use xlink:href="#DejaVuSans-54"/>
      <use x="61.037109" xlink:href="#DejaVuSans-69"/>
      <use x="88.820312" xlink:href="#DejaVuSans-6d"/>
      <use x="186.232422" xlink:href="#DejaVuSans-65"/>
     </g>
    </g>
   </g>
   <g id="matplotlib.axis_2">
    <g id="ytick_1">
     <g id="line2d_7">
      <defs>
       <path d="M 0 0 
L -3.5 0 
" id="m05d516fa86" style="stroke:#000000;stroke-width:0.8;"/>
      </defs>
      <g>
       <use style="stroke:#000000;stroke-width:0.8;" x="57.6" xlink:href="#m05d516fa86" y="287.826142"/>
      </g>
     </g>
     <g id="text_8">
      <!-- 0.00 -->
      <defs>
       <path d="M 10.6875 12.40625 
L 21 12.40625 
L 21 0 
L 10.6875 0 
z
" id="DejaVuSans-2e"/>
      </defs>
      <g transform="translate(28.334375 291.625361)scale(0.1 -0.1)">
       <use xlink:href="#DejaVuSans-30"/>
       <use x="63.623047" xlink:href="#DejaVuSans-2e"/>
       <use x="95.410156" xlink:href="#DejaVuSans-30"/>
       <use x="159.033203" xlink:href="#DejaVuSans-30"/>
      </g>
     </g>
    </g>
    <g id="ytick_2">
     <g id="line2d_8">
      <g>
       <use style="stroke:#000000;stroke-width:0.8;" x="57.6" xlink:href="#m05d516fa86" y="241.065532"/>
      </g>
     </g>
     <g id="text_9">
      <!-- 0.05 -->
      <g transform="translate(28.334375 244.864751)scale(0.1 -0.1)">
       <use xlink:href="#DejaVuSans-30"/>
       <use x="63.623047" xlink:href="#DejaVuSans-2e"/>
       <use x="95.410156" xlink:href="#DejaVuSans-30"/>
       <use x="159.033203" xlink:href="#DejaVuSans-35"/>
      </g>
     </g>
    </g>
    <g id="ytick_3">
     <g id="line2d_9">
      <g>
       <use style="stroke:#000000;stroke-width:0.8;" x="57.6" xlink:href="#m05d516fa86" y="194.304922"/>
      </g>
     </g>
     <g id="text_10">
      <!-- 0.10 -->
      <g transform="translate(28.334375 198.10414)scale(0.1 -0.1)">
       <use xlink:href="#DejaVuSans-30"/>
       <use x="63.623047" xlink:href="#DejaVuSans-2e"/>
       <use x="95.410156" xlink:href="#DejaVuSans-31"/>
       <use x="159.033203" xlink:href="#DejaVuSans-30"/>
      </g>
     </g>
    </g>
    <g id="ytick_4">
     <g id="line2d_10">
      <g>
       <use style="stroke:#000000;stroke-width:0.8;" x="57.6" xlink:href="#m05d516fa86" y="147.544311"/>
      </g>
     </g>
     <g id="text_11">
      <!-- 0.15 -->
      <g transform="translate(28.334375 151.34353)scale(0.1 -0.1)">
       <use xlink:href="#DejaVuSans-30"/>
       <use x="63.623047" xlink:href="#DejaVuSans-2e"/>
       <use x="95.410156" xlink:href="#DejaVuSans-31"/>
       <use x="159.033203" xlink:href="#DejaVuSans-35"/>
      </g>
     </g>
    </g>
    <g id="ytick_5">
     <g id="line2d_11">
      <g>
       <use style="stroke:#000000;stroke-width:0.8;" x="57.6" xlink:href="#m05d516fa86" y="100.783701"/>
      </g>
     </g>
     <g id="text_12">
      <!-- 0.20 -->
      <g transform="translate(28.334375 104.58292)scale(0.1 -0.1)">
       <use xlink:href="#DejaVuSans-30"/>
       <use x="63.623047" xlink:href="#DejaVuSans-2e"/>
       <use x="95.410156" xlink:href="#DejaVuSans-32"/>
       <use x="159.033203" xlink:href="#DejaVuSans-30"/>
      </g>
     </g>
    </g>
    <g id="ytick_6">
     <g id="line2d_12">
      <g>
       <use style="stroke:#000000;stroke-width:0.8;" x="57.6" xlink:href="#m05d516fa86" y="54.023091"/>
      </g>
     </g>
     <g id="text_13">
      <!-- 0.25 -->
      <g transform="translate(28.334375 57.822309)scale(0.1 -0.1)">
       <use xlink:href="#DejaVuSans-30"/>
       <use x="63.623047" xlink:href="#DejaVuSans-2e"/>
       <use x="95.410156" xlink:href="#DejaVuSans-32"/>
       <use x="159.033203" xlink:href="#DejaVuSans-35"/>
      </g>
     </g>
    </g>
    <g id="text_14">
     <!-- Vertical displacement -->
     <defs>
      <path d="M 28.609375 0 
L 0.78125 72.90625 
L 11.078125 72.90625 
L 34.1875 11.53125 
L 57.328125 72.90625 
L 67.578125 72.90625 
L 39.796875 0 
z
" id="DejaVuSans-56"/>
      <path d="M 41.109375 46.296875 
Q 39.59375 47.171875 37.8125 47.578125 
Q 36.03125 48 33.890625 48 
Q 26.265625 48 22.1875 43.046875 
Q 18.109375 38.09375 18.109375 28.8125 
L 18.109375 0 
L 9.078125 0 
L 9.078125 54.6875 
L 18.109375 54.6875 
L 18.109375 46.1875 
Q 20.953125 51.171875 25.484375 53.578125 
Q 30.03125 56 36.53125 56 
Q 37.453125 56 38.578125 55.875 
Q 39.703125 55.765625 41.0625 55.515625 
z
" id="DejaVuSans-72"/>
      <path d="M 18.3125 70.21875 
L 18.3125 54.6875 
L 36.8125 54.6875 
L 36.8125 47.703125 
L 18.3125 47.703125 
L 18.3125 18.015625 
Q 18.3125 11.328125 20.140625 9.421875 
Q 21.96875 7.515625 27.59375 7.515625 
L 36.8125 7.515625 
L 36.8125 0 
L 27.59375 0 
Q 17.1875 0 13.234375 3.875 
Q 9.28125 7.765625 9.28125 18.015625 
L 9.28125 47.703125 
L 2.6875 47.703125 
L 2.6875 54.6875 
L 9.28125 54.6875 
L 9.28125 70.21875 
z
" id="DejaVuSans-74"/>
      <path d="M 48.78125 52.59375 
L 48.78125 44.1875 
Q 44.96875 46.296875 41.140625 47.34375 
Q 37.3125 48.390625 33.40625 48.390625 
Q 24.65625 48.390625 19.8125 42.84375 
Q 14.984375 37.3125 14.984375 27.296875 
Q 14.984375 17.28125 19.8125 11.734375 
Q 24.65625 6.203125 33.40625 6.203125 
Q 37.3125 6.203125 41.140625 7.25 
Q 44.96875 8.296875 48.78125 10.40625 
L 48.78125 2.09375 
Q 45.015625 0.34375 40.984375 -0.53125 
Q 36.96875 -1.421875 32.421875 -1.421875 
Q 20.0625 -1.421875 12.78125 6.34375 
Q 5.515625 14.109375 5.515625 27.296875 
Q 5.515625 40.671875 12.859375 48.328125 
Q 20.21875 56 33.015625 56 
Q 37.15625 56 41.109375 55.140625 
Q 45.0625 54.296875 48.78125 52.59375 
z
" id="DejaVuSans-63"/>
      <path d="M 34.28125 27.484375 
Q 23.390625 27.484375 19.1875 25 
Q 14.984375 22.515625 14.984375 16.5 
Q 14.984375 11.71875 18.140625 8.90625 
Q 21.296875 6.109375 26.703125 6.109375 
Q 34.1875 6.109375 38.703125 11.40625 
Q 43.21875 16.703125 43.21875 25.484375 
L 43.21875 27.484375 
z
M 52.203125 31.203125 
L 52.203125 0 
L 43.21875 0 
L 43.21875 8.296875 
Q 40.140625 3.328125 35.546875 0.953125 
Q 30.953125 -1.421875 24.3125 -1.421875 
Q 15.921875 -1.421875 10.953125 3.296875 
Q 6 8.015625 6 15.921875 
Q 6 25.140625 12.171875 29.828125 
Q 18.359375 34.515625 30.609375 34.515625 
L 43.21875 34.515625 
L 43.21875 35.40625 
Q 43.21875 41.609375 39.140625 45 
Q 35.0625 48.390625 27.6875 48.390625 
Q 23 48.390625 18.546875 47.265625 
Q 14.109375 46.140625 10.015625 43.890625 
L 10.015625 52.203125 
Q 14.9375 54.109375 19.578125 55.046875 
Q 24.21875 56 28.609375 56 
Q 40.484375 56 46.34375 49.84375 
Q 52.203125 43.703125 52.203125 31.203125 
z
" id="DejaVuSans-61"/>
      <path d="M 9.421875 75.984375 
L 18.40625 75.984375 
L 18.40625 0 
L 9.421875 0 
z
" id="DejaVuSans-6c"/>
      <path id="DejaVuSans-20"/>
      <path d="M 45.40625 46.390625 
L 45.40625 75.984375 
L 54.390625 75.984375 
L 54.390625 0 
L 45.40625 0 
L 45.40625 8.203125 
Q 42.578125 3.328125 38.25 0.953125 
Q 33.9375 -1.421875 27.875 -1.421875 
Q 17.96875 -1.421875 11.734375 6.484375 
Q 5.515625 14.40625 5.515625 27.296875 
Q 5.515625 40.1875 11.734375 48.09375 
Q 17.96875 56 27.875 56 
Q 33.9375 56 38.25 53.625 
Q 42.578125 51.265625 45.40625 46.390625 
z
M 14.796875 27.296875 
Q 14.796875 17.390625 18.875 11.75 
Q 22.953125 6.109375 30.078125 6.109375 
Q 37.203125 6.109375 41.296875 11.75 
Q 45.40625 17.390625 45.40625 27.296875 
Q 45.40625 37.203125 41.296875 42.84375 
Q 37.203125 48.484375 30.078125 48.484375 
Q 22.953125 48.484375 18.875 42.84375 
Q 14.796875 37.203125 14.796875 27.296875 
z
" id="DejaVuSans-64"/>
      <path d="M 44.28125 53.078125 
L 44.28125 44.578125 
Q 40.484375 46.53125 36.375 47.5 
Q 32.28125 48.484375 27.875 48.484375 
Q 21.1875 48.484375 17.84375 46.4375 
Q 14.5 44.390625 14.5 40.28125 
Q 14.5 37.15625 16.890625 35.375 
Q 19.28125 33.59375 26.515625 31.984375 
L 29.59375 31.296875 
Q 39.15625 29.25 43.1875 25.515625 
Q 47.21875 21.78125 47.21875 15.09375 
Q 47.21875 7.46875 41.1875 3.015625 
Q 35.15625 -1.421875 24.609375 -1.421875 
Q 20.21875 -1.421875 15.453125 -0.5625 
Q 10.6875 0.296875 5.421875 2 
L 5.421875 11.28125 
Q 10.40625 8.6875 15.234375 7.390625 
Q 20.0625 6.109375 24.8125 6.109375 
Q 31.15625 6.109375 34.5625 8.28125 
Q 37.984375 10.453125 37.984375 14.40625 
Q 37.984375 18.0625 35.515625 20.015625 
Q 33.0625 21.96875 24.703125 23.78125 
L 21.578125 24.515625 
Q 13.234375 26.265625 9.515625 29.90625 
Q 5.8125 33.546875 5.8125 39.890625 
Q 5.8125 47.609375 11.28125 51.796875 
Q 16.75 56 26.8125 56 
Q 31.78125 56 36.171875 55.265625 
Q 40.578125 54.546875 44.28125 53.078125 
z
" id="DejaVuSans-73"/>
      <path d="M 18.109375 8.203125 
L 18.109375 -20.796875 
L 9.078125 -20.796875 
L 9.078125 54.6875 
L 18.109375 54.6875 
L 18.109375 46.390625 
Q 20.953125 51.265625 25.265625 53.625 
Q 29.59375 56 35.59375 56 
Q 45.5625 56 51.78125 48.09375 
Q 58.015625 40.1875 58.015625 27.296875 
Q 58.015625 14.40625 51.78125 6.484375 
Q 45.5625 -1.421875 35.59375 -1.421875 
Q 29.59375 -1.421875 25.265625 0.953125 
Q 20.953125 3.328125 18.109375 8.203125 
z
M 48.6875 27.296875 
Q 48.6875 37.203125 44.609375 42.84375 
Q 40.53125 48.484375 33.40625 48.484375 
Q 26.265625 48.484375 22.1875 42.84375 
Q 18.109375 37.203125 18.109375 27.296875 
Q 18.109375 17.390625 22.1875 11.75 
Q 26.265625 6.109375 33.40625 6.109375 
Q 40.53125 6.109375 44.609375 11.75 
Q 48.6875 17.390625 48.6875 27.296875 
z
" id="DejaVuSans-70"/>
      <path d="M 54.890625 33.015625 
L 54.890625 0 
L 45.90625 0 
L 45.90625 32.71875 
Q 45.90625 40.484375 42.875 44.328125 
Q 39.84375 48.1875 33.796875 48.1875 
Q 26.515625 48.1875 22.3125 43.546875 
Q 18.109375 38.921875 18.109375 30.90625 
L 18.109375 0 
L 9.078125 0 
L 9.078125 54.6875 
L 18.109375 54.6875 
L 18.109375 46.1875 
Q 21.34375 51.125 25.703125 53.5625 
Q 30.078125 56 35.796875 56 
Q 45.21875 56 50.046875 50.171875 
Q 54.890625 44.34375 54.890625 33.015625 
z
" id="DejaVuSans-6e"/>
     </defs>
     <g transform="translate(22.254687 228.912375)rotate(-90)scale(0.1 -0.1)">
      <use xlink:href="#DejaVuSans-56"/>
      <use x="68.298828" xlink:href="#DejaVuSans-65"/>
      <use x="129.822266" xlink:href="#DejaVuSans-72"/>
      <use x="170.935547" xlink:href="#DejaVuSans-74"/>
      <use x="210.144531" xlink:href="#DejaVuSans-69"/>
      <use x="237.927734" xlink:href="#DejaVuSans-63"/>
      <use x="292.908203" xlink:href="#DejaVuSans-61"/>
      <use x="354.1875" xlink:href="#DejaVuSans-6c"/>
      <use x="381.970703" xlink:href="#DejaVuSans-20"/>
      <use x="413.757812" xlink:href="#DejaVuSans-64"/>
      <use x="477.234375" xlink:href="#DejaVuSans-69"/>
      <use x="505.017578" xlink:href="#DejaVuSans-73"/>
      <use x="557.117188" xlink:href="#DejaVuSans-70"/>
      <use x="620.59375" xlink:href="#DejaVuSans-6c"/>
      <use x="648.376953" xlink:href="#DejaVuSans-61"/>
      <use x="709.65625" xlink:href="#DejaVuSans-63"/>
      <use x="764.636719" xlink:href="#DejaVuSans-65"/>
      <use x="826.160156" xlink:href="#DejaVuSans-6d"/>
      <use x="923.572266" xlink:href="#DejaVuSans-65"/>
      <use x="985.095703" xlink:href="#DejaVuSans-6e"/>
      <use x="1048.474609" xlink:href="#DejaVuSans-74"/>
     </g>
    </g>
   </g>
   <g id="line2d_13">
    <path clip-path="url(#p7e4a4b2220)" d="M 57.6 287.826142 
L 59.02848 287.886765 
L 60.45696 288.217268 
L 61.88544 288.916444 
L 63.31392 289.96357 
L 65.45664 291.948785 
L 67.59936 293.938627 
L 69.02784 294.949135 
L 69.74208 295.283833 
L 70.45632 295.471449 
L 71.17056 295.488 
L 71.8848 295.310804 
L 72.59904 294.919281 
L 73.31328 294.295653 
L 74.02752 293.425229 
L 74.74176 292.296572 
L 75.456 290.901431 
L 76.88448 287.294001 
L 78.31296 282.601335 
L 79.74144 276.877753 
L 81.16992 270.199585 
L 82.5984 262.623339 
L 84.74112 249.691801 
L 86.88384 234.988577 
L 89.02656 218.734056 
L 91.88352 195.374573 
L 94.74048 169.89411 
L 96.8832 150.761554 
L 97.59744 145.481244 
L 98.31168 141.530222 
L 99.02592 139.490001 
L 99.74016 139.786275 
L 100.4544 142.476892 
L 101.16864 147.163107 
L 102.59712 159.561533 
L 104.73984 178.186723 
L 106.16832 188.364975 
L 106.88256 192.533317 
L 107.5968 196.017324 
L 108.31104 198.789939 
L 109.02528 200.839755 
L 109.73952 202.159749 
L 110.45376 202.734654 
L 111.168 202.529624 
L 111.88224 201.489488 
L 112.59648 199.550127 
L 113.31072 196.651805 
L 114.02496 192.760254 
L 114.7392 187.8796 
L 116.16768 175.305869 
L 117.59616 159.206854 
L 119.02464 139.800643 
L 121.8816 98.132297 
L 122.59584 89.841656 
L 123.31008 83.519063 
L 124.02432 79.512842 
L 124.73856 77.72246 
L 125.4528 77.699787 
L 126.16704 79.000605 
L 126.88128 81.344389 
L 128.30976 88.077543 
L 131.88096 106.578182 
L 134.02368 115.562698 
L 136.1664 123.445942 
L 140.45184 137.9763 
L 141.88032 142.219693 
L 143.3088 145.588382 
L 144.02304 146.762747 
L 144.73728 147.521145 
L 145.45152 147.810576 
L 146.16576 147.571313 
L 146.88 146.743168 
L 147.59424 145.277127 
L 148.30848 143.139578 
L 149.02272 140.314022 
L 149.73696 136.800666 
L 151.16544 127.786579 
L 152.59392 116.435257 
L 156.87936 79.407975 
L 157.5936 74.87646 
L 158.30784 71.265778 
L 159.02208 68.612843 
L 159.73632 66.936568 
L 160.45056 66.209428 
L 161.1648 66.320956 
L 161.87904 67.129634 
L 162.59328 68.535221 
L 163.30752 70.452432 
L 164.736 75.457274 
L 166.16448 81.619787 
L 167.59296 88.815079 
L 169.73568 101.153483 
L 174.73536 132.107065 
L 176.16384 139.214658 
L 176.87808 142.147046 
L 177.59232 144.607974 
L 178.30656 146.559634 
L 179.0208 147.961723 
L 179.73504 148.772895 
L 180.44928 148.956304 
L 181.16352 148.483492 
L 181.87776 147.335743 
L 182.592 145.50414 
L 183.30624 142.985909 
L 184.02048 139.786177 
L 184.73472 135.925 
L 186.1632 126.425948 
L 187.59168 115.164317 
L 190.44864 91.497097 
L 191.87712 81.567291 
L 192.59136 77.509174 
L 193.3056 74.1456 
L 194.01984 71.495146 
L 194.73408 69.530665 
L 195.44832 68.201307 
L 196.16256 67.456469 
L 196.8768 67.249885 
L 197.59104 67.535471 
L 198.30528 68.276643 
L 199.01952 69.454493 
L 199.73376 71.068838 
L 200.448 73.1262 
L 201.16224 75.621242 
L 202.59072 81.909135 
L 204.0192 89.884299 
L 205.44768 99.231799 
L 210.44736 133.801721 
L 211.87584 141.23353 
L 212.59008 144.193163 
L 213.30432 146.591825 
L 214.01856 148.397606 
L 214.7328 149.584095 
L 215.44704 150.128384 
L 216.16128 150.011031 
L 216.87552 149.214937 
L 217.58976 147.729958 
L 218.304 145.555354 
L 219.01824 142.701146 
L 219.73248 139.190341 
L 221.16096 130.370796 
L 222.58944 119.637762 
L 226.16064 90.844709 
L 227.58912 81.507493 
L 228.30336 77.72129 
L 229.0176 74.571421 
L 229.73184 72.057774 
L 230.44608 70.156757 
L 231.16032 68.828792 
L 231.87456 68.029562 
L 232.5888 67.720746 
L 233.30304 67.87351 
L 234.01728 68.471103 
L 234.73152 69.506933 
L 235.44576 70.986408 
L 236.16 72.920773 
L 236.87424 75.320704 
L 237.58848 78.191161 
L 239.01696 85.322878 
L 240.44544 94.138284 
L 242.58816 109.434425 
L 244.73088 124.945094 
L 246.15936 134.070904 
L 247.58784 141.496345 
L 248.30208 144.434892 
L 249.01632 146.80259 
L 249.73056 148.56751 
L 250.4448 149.703845 
L 251.15904 150.191025 
L 251.87328 150.013135 
L 252.58752 149.157146 
L 253.30176 147.616549 
L 254.016 145.393156 
L 254.73024 142.499063 
L 255.44448 138.958979 
L 256.87296 130.118197 
L 258.30144 119.414581 
L 261.87264 90.841378 
L 263.30112 81.596807 
L 264.01536 77.842614 
L 264.7296 74.710973 
L 265.44384 72.198483 
L 266.15808 70.281691 
L 266.87232 68.925826 
L 267.58656 68.092036 
L 268.3008 67.744214 
L 269.01504 67.855087 
L 269.72928 68.412642 
L 270.44352 69.416392 
L 271.15776 70.873918 
L 271.872 72.795644 
L 272.58624 75.192871 
L 273.30048 78.072526 
L 274.72896 85.25083 
L 276.15744 94.125309 
L 278.30016 109.502613 
L 280.44288 125.043201 
L 281.87136 134.166838 
L 283.29984 141.574329 
L 284.01408 144.498927 
L 284.72832 146.85064 
L 285.44256 148.598573 
L 286.1568 149.717683 
L 286.87104 150.187875 
L 287.58528 149.993834 
L 288.29952 149.123087 
L 289.01376 147.569948 
L 289.728 145.336897 
L 290.44224 142.436422 
L 291.15648 138.893175 
L 292.58496 130.054719 
L 294.01344 119.364384 
L 297.58464 90.855412 
L 299.01312 81.628734 
L 299.72736 77.877314 
L 300.4416 74.744168 
L 301.15584 72.22747 
L 301.87008 70.304977 
L 302.58432 68.941964 
L 303.29856 68.100008 
L 304.0128 67.744632 
L 304.72704 67.849638 
L 305.44128 68.40265 
L 306.15552 69.402707 
L 306.86976 70.858324 
L 307.584 72.780677 
L 308.29824 75.180204 
L 309.01248 78.062325 
L 310.44096 85.246608 
L 311.86944 94.128988 
L 314.01216 109.511337 
L 316.15488 125.051967 
L 317.58336 134.171534 
L 319.01184 141.574329 
L 319.72608 144.496474 
L 320.44032 146.84554 
L 321.15456 148.590685 
L 321.8688 149.707217 
L 322.58304 150.175375 
L 323.29728 149.980079 
L 324.01152 149.108844 
L 324.72576 147.555859 
L 325.44 145.32338 
L 326.15424 142.423796 
L 326.86848 138.881859 
L 328.29696 130.047473 
L 329.72544 119.362182 
L 333.29664 90.861864 
L 334.72512 81.635089 
L 335.43936 77.883181 
L 336.1536 74.749101 
L 336.86784 72.230717 
L 337.58208 70.305981 
L 338.29632 68.940793 
L 339.01056 68.096942 
L 339.7248 67.739796 
L 340.43904 67.843242 
L 341.15328 68.395446 
L 341.86752 69.395628 
L 342.58176 70.851872 
L 343.296 72.775005 
L 344.01024 75.175716 
L 344.72448 78.059664 
L 346.15296 85.247611 
L 347.58144 94.132096 
L 349.72416 109.516005 
L 351.86688 125.055172 
L 353.29536 134.173471 
L 354.72384 141.574357 
L 355.43808 144.495554 
L 356.15232 146.843839 
L 356.86656 148.588484 
L 357.5808 149.704625 
L 358.29504 150.17249 
L 359.00928 149.976874 
L 359.72352 149.105402 
L 360.43776 147.552305 
L 361.152 145.319937 
L 361.86624 142.420717 
L 362.58048 138.879281 
L 364.00896 130.046037 
L 365.43744 119.361973 
L 369.00864 90.863689 
L 370.43712 81.636775 
L 371.15136 77.884477 
L 371.8656 74.749882 
L 372.57984 72.231051 
L 373.29408 70.305995 
L 374.00832 68.940542 
L 374.72256 68.096468 
L 375.4368 67.739155 
L 376.15104 67.842573 
L 376.86528 68.394804 
L 377.57952 69.395071 
L 378.29376 70.851398 
L 379.008 72.774699 
L 379.72224 75.175563 
L 380.43648 78.059594 
L 381.86496 85.247736 
L 383.29344 94.132249 
L 385.43616 109.515963 
L 387.57888 125.054796 
L 389.00736 134.172858 
L 390.43584 141.573688 
L 391.15008 144.494885 
L 391.86432 146.843143 
L 392.57856 148.587745 
L 393.2928 149.703915 
L 394.00704 150.171835 
L 394.72128 149.976359 
L 395.43552 149.105012 
L 396.14976 147.552054 
L 396.864 145.319812 
L 397.57824 142.420703 
L 398.29248 138.879392 
L 399.72096 130.046414 
L 401.14944 119.362517 
L 404.72064 90.864177 
L 406.14912 81.637012 
L 406.86336 77.884645 
L 407.5776 74.749951 
L 408.29184 72.230995 
L 409.00608 70.305841 
L 409.72032 68.940291 
L 410.43456 68.096161 
L 411.1488 67.738835 
L 411.86304 67.842266 
L 412.57728 68.394526 
L 413.29152 69.39482 
L 414.00576 70.851203 
L 414.72 72.774545 
L 415.43424 75.17548 
L 416.14848 78.05958 
L 417.57696 85.247736 
L 419.00544 94.132249 
L 421.14816 109.515866 
L 423.29088 125.054629 
L 424.71936 134.172649 
L 426.14784 141.573423 
L 426.86208 144.494635 
L 427.57632 146.84292 
L 428.29056 148.587578 
L 429.0048 149.703761 
L 429.71904 150.171682 
L 430.43328 149.976219 
L 431.14752 149.104928 
L 431.86176 147.552012 
L 432.576 145.319854 
L 433.29024 142.4208 
L 434.00448 138.879532 
L 435.43296 130.046623 
L 436.86144 119.362809 
L 440.43264 90.864456 
L 441.86112 81.637207 
L 442.57536 77.884784 
L 443.2896 74.750049 
L 443.2896 74.750049 
" style="fill:none;stroke:#1f77b4;stroke-linecap:square;stroke-width:1.5;"/>
   </g>
   <g id="line2d_14">
    <path clip-path="url(#p7e4a4b2220)" d="M 59.024807 288.104178 
L 61.419347 288.904643 
L 63.813888 290.305456 
L 66.208429 291.506153 
L 68.602969 291.706269 
L 70.99751 289.905224 
L 73.392051 286.453219 
L 74.988411 281.500344 
L 76.584771 276.097206 
L 78.979312 264.690583 
L 79.777492 259.887795 
L 80.575673 256.285703 
L 81.373853 252.083263 
L 82.172033 246.680126 
L 83.169758 240.976815 
L 84.566574 231.071063 
L 86.162934 220.264789 
L 87.559749 210.359037 
L 88.397839 203.815238 
L 90.153835 192.648754 
L 91.550651 181.542305 
L 94.743371 157.678449 
L 96.539277 146.221797 
L 97.137912 140.718602 
L 98.933818 130.012386 
L 99.731998 125.209597 
L 101.727448 126.010062 
L 104.255019 151.825051 
L 104.255019 157.028072 
L 104.920169 161.130454 
L 106.3835 178.840737 
L 107.7138 183.443409 
L 108.51198 187.245617 
L 110.906521 187.045501 
L 112.502881 183.843642 
L 113.301062 180.041434 
L 114.897422 175.838994 
L 117.558023 152.225283 
L 116.759843 157.828536 
L 118.356203 141.419009 
L 117.558023 147.022262 
L 119.952563 118.605763 
L 119.287413 123.608667 
L 119.287413 126.910585 
L 120.484684 108.299779 
L 119.952563 113.402742 
L 121.548924 94.791936 
L 120.883774 100.195073 
L 120.883774 103.797164 
L 122.280589 83.835574 
L 121.548924 89.388799 
L 123.145284 72.579038 
L 122.480134 77.381827 
L 122.081044 79.182873 
L 123.87695 61.772764 
L 123.145284 67.77625 
L 124.475585 57.570324 
L 125.273765 54.368465 
L 126.870125 57.570324 
L 127.136185 62.573229 
L 128.200426 66.975785 
L 128.466486 71.078167 
L 130.461936 91.490019 
L 133.255567 120.006576 
L 134.053747 128.411456 
L 134.319807 133.214245 
L 135.384048 137.816917 
L 135.650108 141.318951 
L 136.448288 146.221797 
L 138.044648 150.774441 
L 140.439189 152.825632 
L 142.83373 148.222959 
L 142.03555 151.224702 
L 144.43009 140.218311 
L 145.22827 136.215988 
L 146.026451 130.212502 
L 146.824631 125.109539 
L 148.420991 113.402742 
L 152.411892 86.987404 
L 153.476133 82.584848 
L 154.008253 78.582524 
L 154.806433 74.980433 
L 156.402794 66.375436 
L 158.797334 64.774507 
L 161.191875 65.975204 
L 163.054295 68.976947 
L 164.384596 72.579038 
L 165.980956 77.782059 
L 166.779136 82.184616 
L 167.843377 90.189263 
L 169.014041 95.872563 
L 169.772312 102.44638 
L 171.568218 113.402742 
L 172.366398 118.20553 
L 173.164578 121.807622 
L 173.962758 126.61041 
L 174.760939 130.212502 
L 175.559119 135.215407 
L 177.155479 140.118253 
L 179.749565 141.318951 
L 181.944561 136.61622 
L 181.14638 140.418428 
L 183.540921 129.011805 
L 184.339101 123.808784 
L 183.540921 127.210759 
L 185.137282 116.704659 
L 184.738191 120.30675 
L 186.733642 101.996119 
L 186.334552 106.198559 
L 188.330002 86.387056 
L 187.930912 90.289321 
L 189.128183 79.983337 
L 188.330002 82.784964 
L 189.926363 72.579038 
L 189.128183 75.580781 
L 190.724543 66.17532 
L 189.926363 69.577295 
L 193.119084 53.568 
L 195.513624 53.768116 
L 196.311805 57.77044 
L 197.908165 62.673287 
L 198.706345 67.77625 
L 200.302706 73.779735 
L 200.834826 78.982756 
L 201.366946 82.98508 
L 202.697246 88.188101 
L 202.697246 92.99089 
L 204.293607 98.394027 
L 205.091787 103.49699 
L 205.357847 106.999023 
L 206.688148 111.40158 
L 207.486328 116.704659 
L 208.284508 120.30675 
L 209.082688 123.308493 
L 209.880868 127.010643 
L 211.477229 131.563286 
L 213.073589 135.215407 
L 215.46813 134.815174 
L 217.703035 131.05299 
L 219.459031 124.809365 
L 220.257211 120.606925 
L 219.459031 127.811108 
L 221.587512 109.200302 
L 222.651752 102.9967 
L 221.853572 105.59821 
L 223.449932 94.791936 
L 223.050842 98.694201 
L 224.248112 87.887927 
L 223.849022 91.490019 
L 225.844473 72.278864 
L 225.445383 76.18113 
L 226.842198 66.575553 
L 225.844473 69.577295 
L 228.239014 57.570324 
L 229.835374 54.168349 
L 232.229915 55.569162 
L 233.028095 58.971137 
L 234.624455 63.373693 
L 235.422636 68.976947 
L 236.220816 73.379503 
L 236.819451 78.582524 
L 238.415811 88.188101 
L 238.881417 92.790774 
L 240.211717 97.793679 
L 240.477777 103.396932 
L 241.808077 108.599953 
L 242.406713 114.603439 
L 244.202618 123.608667 
L 245.798978 128.011224 
L 246.597159 131.012967 
L 248.193519 134.214826 
L 250.58806 136.416104 
L 252.783055 133.664506 
L 253.780781 128.71163 
L 255.377141 122.40797 
L 257.771682 106.598791 
L 256.973502 109.200302 
L 258.569862 98.694201 
L 258.170772 102.296293 
L 260.964403 77.982176 
L 260.166222 80.38357 
L 261.762583 71.97869 
L 260.964403 74.380084 
L 262.560763 66.575553 
L 263.358943 61.372532 
L 264.157124 57.570324 
L 264.955304 54.568581 
L 267.349844 55.369046 
L 268.946205 58.771021 
L 270.542565 66.575553 
L 271.074685 70.577876 
L 272.138926 75.380665 
L 273.735286 83.585429 
L 274.001346 87.787869 
L 274.932557 92.99089 
L 276.129827 98.994376 
L 276.728462 104.997862 
L 277.526642 109.80065 
L 278.524368 114.203206 
L 280.120728 123.608667 
L 280.918908 127.410875 
L 284.111629 135.415523 
L 286.50617 136.015871 
L 288.701165 133.664506 
L 290.497071 125.409713 
L 291.295251 120.606925 
L 292.093431 114.603439 
L 291.295251 118.805879 
L 292.891612 110.200883 
L 293.689792 103.797164 
L 292.891612 106.798907 
L 294.487972 97.19333 
L 293.689792 99.594724 
L 295.286152 89.088624 
L 294.887062 92.690716 
L 296.350393 81.384151 
L 295.685242 85.486533 
L 296.882513 75.880956 
L 296.084332 79.182873 
L 298.478873 63.974042 
L 300.075234 55.769278 
L 302.469774 54.768697 
L 304.332195 57.970556 
L 305.662495 62.573229 
L 306.194615 66.975785 
L 307.258856 71.178225 
L 308.855216 80.583686 
L 309.653396 85.386475 
L 310.717637 94.992052 
L 312.447027 104.5476 
L 313.644297 109.80065 
L 314.442478 115.804136 
L 316.837018 127.210759 
L 318.433379 131.563286 
L 320.029739 135.415523 
L 322.42428 136.015871 
L 324.81882 131.813431 
L 324.02064 135.01529 
L 326.415181 124.409132 
L 328.011541 115.203787 
L 328.809722 109.200302 
L 328.011541 111.601696 
L 329.408357 103.49699 
L 331.204262 87.887927 
L 330.805172 91.490019 
L 332.601078 75.880956 
L 333.439167 69.217086 
L 334.596528 62.973461 
L 335.195163 58.470847 
L 335.993344 54.968813 
L 338.387884 54.568581 
L 339.984245 58.620934 
L 341.580605 63.373693 
L 343.176966 72.178806 
L 343.975146 77.381827 
L 344.773326 81.784383 
L 345.837566 91.38996 
L 347.167867 97.19333 
L 348.764227 106.999023 
L 350.360588 117.004833 
L 352.755128 127.510933 
L 353.553308 130.81285 
L 355.149669 135.01529 
L 357.54421 136.015871 
L 359.779114 133.454384 
L 361.535111 127.610991 
L 363.929651 114.00309 
L 367.920552 80.183454 
L 367.122372 83.385313 
L 368.718733 71.578457 
L 368.319643 75.880956 
L 371.113273 57.570324 
L 371.911454 54.568581 
L 374.305994 54.768697 
L 375.902355 58.771021 
L 377.498715 64.374274 
L 381.489616 87.787869 
L 382.553856 97.393446 
L 384.682337 108.199721 
L 387.076878 122.207854 
L 387.875058 126.210178 
L 389.471418 131.413199 
L 391.067779 135.01529 
L 393.46232 135.815755 
L 395.85686 132.613896 
L 397.453221 127.010643 
L 398.251401 121.407389 
L 399.049581 117.605182 
L 400.446396 107.099082 
L 401.444122 98.79426 
L 401.045032 102.296293 
L 402.242302 91.189844 
L 401.843212 95.09211 
L 403.040482 85.186358 
L 402.242302 87.587753 
L 403.838662 77.081653 
L 403.439572 80.683744 
L 404.437298 71.97869 
L 406.233203 61.372532 
L 407.031383 57.570324 
L 407.829564 54.368465 
L 410.224104 54.368465 
L 411.022284 57.77044 
L 412.618645 61.572648 
L 413.416825 66.575553 
L 414.215005 70.177644 
L 414.215005 73.779735 
L 415.811366 78.582524 
L 416.609546 84.185778 
L 417.208181 89.388799 
L 418.006361 94.191587 
L 418.471966 98.594143 
L 419.642631 104.277443 
L 420.400902 110.100824 
L 421.398627 114.603439 
L 422.994988 124.0089 
L 426.187709 133.814593 
L 428.582249 136.416104 
L 430.97679 134.414942 
L 431.77497 130.81285 
L 433.371331 126.010062 
L 434.967691 117.004833 
L 435.765871 110.551086 
L 434.967691 114.00309 
L 436.564051 104.997862 
L 438.160412 89.088624 
L 437.761322 92.99089 
L 438.958592 83.585429 
L 438.160412 86.387056 
L 439.756772 76.581362 
L 438.958592 79.182873 
L 441.353133 64.174158 
L 442.151313 59.171253 
L 443.747673 54.568581 
L 446.142214 55.769278 
L 447.738575 60.121805 
L 449.334935 66.875727 
L 450.133115 71.97869 
L 450.931295 75.981014 
L 452.527656 85.786707 
L 452.793716 90.189263 
L 456.518557 110.601115 
L 457.316737 115.804136 
L 459.711278 127.210759 
L 461.307638 132.613896 
L 461.8 133.601438 
L 461.8 133.601438 
" style="fill:none;stroke:#ff7f0e;stroke-linecap:square;stroke-width:1.5;"/>
   </g>
   <g id="patch_3">
    <path d="M 57.6 307.584 
L 57.6 41.472 
" style="fill:none;stroke:#000000;stroke-linecap:square;stroke-linejoin:miter;stroke-width:0.8;"/>
   </g>
   <g id="patch_4">
    <path d="M 414.72 307.584 
L 414.72 41.472 
" style="fill:none;stroke:#000000;stroke-linecap:square;stroke-linejoin:miter;stroke-width:0.8;"/>
   </g>
   <g id="patch_5">
    <path d="M 57.6 307.584 
L 414.72 307.584 
" style="fill:none;stroke:#000000;stroke-linecap:square;stroke-linejoin:miter;stroke-width:0.8;"/>
   </g>
   <g id="patch_6">
    <path d="M 57.6 41.472 
L 414.72 41.472 
" style="fill:none;stroke:#000000;stroke-linecap:square;stroke-linejoin:miter;stroke-width:0.8;"/>
   </g>
   <g id="legend_1">
    <g id="patch_7">
     <path d="M 310.434063 302.584 
L 407.72 302.584 
Q 409.72 302.584 409.72 300.584 
L 409.72 272.22775 
Q 409.72 270.22775 407.72 270.22775 
L 310.434063 270.22775 
Q 308.434063 270.22775 308.434063 272.22775 
L 308.434063 300.584 
Q 308.434063 302.584 310.434063 302.584 
z
" style="fill:#ffffff;opacity:0.8;stroke:#cccccc;stroke-linejoin:miter;"/>
    </g>
    <g id="line2d_15">
     <path d="M 312.434063 278.326187 
L 332.434063 278.326187 
" style="fill:none;stroke:#1f77b4;stroke-linecap:square;stroke-width:1.5;"/>
    </g>
    <g id="line2d_16"/>
    <g id="text_15">
     <!-- Present work -->
     <defs>
      <path d="M 19.671875 64.796875 
L 19.671875 37.40625 
L 32.078125 37.40625 
Q 38.96875 37.40625 42.71875 40.96875 
Q 46.484375 44.53125 46.484375 51.125 
Q 46.484375 57.671875 42.71875 61.234375 
Q 38.96875 64.796875 32.078125 64.796875 
z
M 9.8125 72.90625 
L 32.078125 72.90625 
Q 44.34375 72.90625 50.609375 67.359375 
Q 56.890625 61.8125 56.890625 51.125 
Q 56.890625 40.328125 50.609375 34.8125 
Q 44.34375 29.296875 32.078125 29.296875 
L 19.671875 29.296875 
L 19.671875 0 
L 9.8125 0 
z
" id="DejaVuSans-50"/>
      <path d="M 4.203125 54.6875 
L 13.1875 54.6875 
L 24.421875 12.015625 
L 35.59375 54.6875 
L 46.1875 54.6875 
L 57.421875 12.015625 
L 68.609375 54.6875 
L 77.59375 54.6875 
L 63.28125 0 
L 52.6875 0 
L 40.921875 44.828125 
L 29.109375 0 
L 18.5 0 
z
" id="DejaVuSans-77"/>
      <path d="M 30.609375 48.390625 
Q 23.390625 48.390625 19.1875 42.75 
Q 14.984375 37.109375 14.984375 27.296875 
Q 14.984375 17.484375 19.15625 11.84375 
Q 23.34375 6.203125 30.609375 6.203125 
Q 37.796875 6.203125 41.984375 11.859375 
Q 46.1875 17.53125 46.1875 27.296875 
Q 46.1875 37.015625 41.984375 42.703125 
Q 37.796875 48.390625 30.609375 48.390625 
z
M 30.609375 56 
Q 42.328125 56 49.015625 48.375 
Q 55.71875 40.765625 55.71875 27.296875 
Q 55.71875 13.875 49.015625 6.21875 
Q 42.328125 -1.421875 30.609375 -1.421875 
Q 18.84375 -1.421875 12.171875 6.21875 
Q 5.515625 13.875 5.515625 27.296875 
Q 5.515625 40.765625 12.171875 48.375 
Q 18.84375 56 30.609375 56 
z
" id="DejaVuSans-6f"/>
      <path d="M 9.078125 75.984375 
L 18.109375 75.984375 
L 18.109375 31.109375 
L 44.921875 54.6875 
L 56.390625 54.6875 
L 27.390625 29.109375 
L 57.625 0 
L 45.90625 0 
L 18.109375 26.703125 
L 18.109375 0 
L 9.078125 0 
z
" id="DejaVuSans-6b"/>
     </defs>
     <g transform="translate(340.434063 281.826187)scale(0.1 -0.1)">
      <use xlink:href="#DejaVuSans-50"/>
      <use x="60.287109" xlink:href="#DejaVuSans-72"/>
      <use x="101.369141" xlink:href="#DejaVuSans-65"/>
      <use x="162.892578" xlink:href="#DejaVuSans-73"/>
      <use x="214.992188" xlink:href="#DejaVuSans-65"/>
      <use x="276.515625" xlink:href="#DejaVuSans-6e"/>
      <use x="339.894531" xlink:href="#DejaVuSans-74"/>
      <use x="379.103516" xlink:href="#DejaVuSans-20"/>
      <use x="410.890625" xlink:href="#DejaVuSans-77"/>
      <use x="492.677734" xlink:href="#DejaVuSans-6f"/>
      <use x="553.859375" xlink:href="#DejaVuSans-72"/>
      <use x="594.972656" xlink:href="#DejaVuSans-6b"/>
     </g>
    </g>
    <g id="line2d_17">
     <path d="M 312.434063 293.004312 
L 332.434063 293.004312 
" style="fill:none;stroke:#ff7f0e;stroke-linecap:square;stroke-width:1.5;"/>
    </g>
    <g id="line2d_18"/>
    <g id="text_16">
     <!-- Valdez -->
     <defs>
      <path d="M 5.515625 54.6875 
L 48.1875 54.6875 
L 48.1875 46.484375 
L 14.40625 7.171875 
L 48.1875 7.171875 
L 48.1875 0 
L 4.296875 0 
L 4.296875 8.203125 
L 38.09375 47.515625 
L 5.515625 47.515625 
z
" id="DejaVuSans-7a"/>
     </defs>
     <g transform="translate(340.434063 296.504312)scale(0.1 -0.1)">
      <use xlink:href="#DejaVuSans-56"/>
      <use x="68.298828" xlink:href="#DejaVuSans-61"/>
      <use x="129.578125" xlink:href="#DejaVuSans-6c"/>
      <use x="157.361328" xlink:href="#DejaVuSans-64"/>
      <use x="220.837891" xlink:href="#DejaVuSans-65"/>
      <use x="282.361328" xlink:href="#DejaVuSans-7a"/>
     </g>
    </g>
   </g>
  </g>
 </g>
 <defs>
  <clipPath id="p7e4a4b2220">
   <rect height="266.112" width="357.12" x="57.6" y="41.472"/>
  </clipPath>
 </defs>
</svg>
